<svg version="1.2" xmlns="http://www.w3.org/2000/svg" viewBox="0 0 376 324" width="376" height="324"><defs><linearGradient id="P" gradientUnits="userSpaceOnUse"/><linearGradient id="g1" x2="1" href="#P" gradientTransform="matrix(6.88,0,0,9.76,93.209,367.696)"><stop stop-color="#fafafa"/><stop offset="1" stop-color="#eee"/></linearGradient><linearGradient id="g2" x2="1" href="#P" gradientTransform="matrix(6.69,0,0,7.16,100.939,370.296)"><stop stop-color="#fafafa"/><stop offset="1" stop-color="#eee"/></linearGradient><linearGradient id="g3" x2="1" href="#P" gradientTransform="matrix(6.02,0,0,7.15,108.159,370.307)"><stop stop-color="#fafafa"/><stop offset="1" stop-color="#eee"/></linearGradient><linearGradient id="g4" x2="1" href="#P" gradientTransform="matrix(1.76,0,0,9.689,115.089,367.767)"><stop stop-color="#fafafa"/><stop offset="1" stop-color="#eee"/></linearGradient><linearGradient id="g5" x2="1" href="#P" gradientTransform="matrix(6.86,0,0,9.75,117.689,370.307)"><stop stop-color="#fafafa"/><stop offset="1" stop-color="#eee"/></linearGradient><linearGradient id="g6" x2="1" href="#P" gradientTransform="matrix(6.27,0,0,7.149,125.689,370.307)"><stop stop-color="#fafafa"/><stop offset="1" stop-color="#eee"/></linearGradient><linearGradient id="g7" x2="1" href="#P" gradientTransform="matrix(6.68,0,0,7.16,132.799,370.296)"><stop stop-color="#fafafa"/><stop offset="1" stop-color="#eee"/></linearGradient><linearGradient id="g8" x2="1" href="#P" gradientTransform="matrix(6.89,0,0,9.76,139.969,367.696)"><stop stop-color="#fafafa"/><stop offset="1" stop-color="#eee"/></linearGradient><linearGradient id="g9" x2="1" href="#P" gradientTransform="matrix(6.86,0,0,9.76,150.719,367.696)"><stop stop-color="#fafafa"/><stop offset="1" stop-color="#eee"/></linearGradient><linearGradient id="g10" x2="1" href="#P" gradientTransform="matrix(6.65,0,0,9.75,157.459,370.307)"><stop stop-color="#fafafa"/><stop offset="1" stop-color="#eee"/></linearGradient><linearGradient id="g11" x2="1" href="#P" gradientTransform="matrix(5.127,0,0,9.762,184.436,367.689)"><stop stop-color="#fafafa"/><stop offset="1" stop-color="#eee"/></linearGradient><linearGradient id="g12" x2="1" href="#P" gradientTransform="matrix(4.829,0,0,7.148,189.311,370.304)"><stop stop-color="#fafafa"/><stop offset="1" stop-color="#eee"/></linearGradient><linearGradient id="g13" x2="1" href="#P" gradientTransform="matrix(6.68,0,0,7.15,193.919,370.296)"><stop stop-color="#fafafa"/><stop offset="1" stop-color="#eee"/></linearGradient><linearGradient id="g14" x2="1" href="#P" gradientTransform="matrix(6.69,0,0,7.15,201.219,370.296)"><stop stop-color="#fafafa"/><stop offset="1" stop-color="#eee"/></linearGradient><linearGradient id="g15" x2="1" href="#P" gradientTransform="matrix(6.87,0,0,9.75,208.649,370.307)"><stop stop-color="#fafafa"/><stop offset="1" stop-color="#eee"/></linearGradient><linearGradient id="g16" x2="1" href="#P" gradientTransform="matrix(1.76,0,0,9.68,216.399,367.767)"><stop stop-color="#fafafa"/><stop offset="1" stop-color="#eee"/></linearGradient><linearGradient id="g17" x2="1" href="#P" gradientTransform="matrix(6.056,0,0,9.762,219.572,367.689)"><stop stop-color="#fafafa"/><stop offset="1" stop-color="#eee"/></linearGradient><linearGradient id="g18" x2="1" href="#P" gradientTransform="matrix(1.941,0,0,1.938,226.669,375.514)"><stop stop-color="#fafafa"/><stop offset="1" stop-color="#eee"/></linearGradient><linearGradient id="g19" x2="1" href="#P" gradientTransform="matrix(6.645,0,0,7.149,229.743,370.291)"><stop stop-color="#fafafa"/><stop offset="1" stop-color="#eee"/></linearGradient><linearGradient id="g20" x2="1" href="#P" gradientTransform="matrix(6.99,0,0,7.149,236.979,370.307)"><stop stop-color="#fafafa"/><stop offset="1" stop-color="#eee"/></linearGradient><linearGradient id="g21" x2="1" href="#P" gradientTransform="matrix(10.064,0,0,7.148,244.727,370.304)"><stop stop-color="#fafafa"/><stop offset="1" stop-color="#eee"/></linearGradient><linearGradient id="g22" x2="1" href="#P" gradientTransform="matrix(.001,0,0,.012,168.871,373.441)"><stop stop-color="#fafafa"/><stop offset="1" stop-color="#eee"/></linearGradient><linearGradient id="g23" x2="1" href="#P" gradientTransform="matrix(.081,0,0,.476,168.882,373.54)"><stop stop-color="#fafafa"/><stop offset="1" stop-color="#eee"/></linearGradient><linearGradient id="g24" x2="1" href="#P" gradientTransform="matrix(.012,0,0,.022,169.531,375.624)"><stop stop-color="#fafafa"/><stop offset="1" stop-color="#eee"/></linearGradient><linearGradient id="g25" x2="1" href="#P" gradientTransform="matrix(.044,0,0,.091,169.442,375.447)"><stop stop-color="#fafafa"/><stop offset="1" stop-color="#eee"/></linearGradient><linearGradient id="g26" x2="1" href="#P" gradientTransform="matrix(.31,0,0,.785,169.124,374.644)"><stop stop-color="#fafafa"/><stop offset="1" stop-color="#eee"/></linearGradient><linearGradient id="g27" x2="1" href="#P" gradientTransform="matrix(4.115,0,0,2.791,172.519,364.423)"><stop stop-color="#fafafa"/><stop offset="1" stop-color="#eee"/></linearGradient><linearGradient id="g28" x2="1" href="#P" gradientTransform="matrix(3.176,0,0,3.63,166.434,368.838)"><stop stop-color="#fafafa"/><stop offset="1" stop-color="#eee"/></linearGradient><linearGradient id="g29" x2="1" href="#P" gradientTransform="matrix(3.129,0,0,3.568,179.234,367.318)"><stop stop-color="#fafafa"/><stop offset="1" stop-color="#eee"/></linearGradient><linearGradient id="g30" x2="1" href="#P" gradientTransform="matrix(12.261,0,0,5.392,169.127,372.837)"><stop stop-color="#fafafa"/><stop offset="1" stop-color="#eee"/></linearGradient><linearGradient id="g31" x2="1" href="#P" gradientTransform="matrix(12.45,0,0,7.399,168.829,367.106)"><stop stop-color="#fafafa"/><stop offset="1" stop-color="#eee"/></linearGradient><linearGradient id="g32" x2="1" href="#P" gradientTransform="matrix(6.88,0,0,9.76,738.209,367.696)"><stop stop-color="#fafafa"/><stop offset="1" stop-color="#eee"/></linearGradient><linearGradient id="g33" x2="1" href="#P" gradientTransform="matrix(6.69,0,0,7.16,745.939,370.296)"><stop stop-color="#fafafa"/><stop offset="1" stop-color="#eee"/></linearGradient><linearGradient id="g34" x2="1" href="#P" gradientTransform="matrix(6.02,0,0,7.149,753.159,370.307)"><stop stop-color="#fafafa"/><stop offset="1" stop-color="#eee"/></linearGradient><linearGradient id="g35" x2="1" href="#P" gradientTransform="matrix(1.76,0,0,9.689,760.089,367.767)"><stop stop-color="#fafafa"/><stop offset="1" stop-color="#eee"/></linearGradient><linearGradient id="g36" x2="1" href="#P" gradientTransform="matrix(6.86,0,0,9.75,762.689,370.307)"><stop stop-color="#fafafa"/><stop offset="1" stop-color="#eee"/></linearGradient><linearGradient id="g37" x2="1" href="#P" gradientTransform="matrix(6.27,0,0,7.149,770.689,370.307)"><stop stop-color="#fafafa"/><stop offset="1" stop-color="#eee"/></linearGradient><linearGradient id="g38" x2="1" href="#P" gradientTransform="matrix(6.68,0,0,7.16,777.799,370.296)"><stop stop-color="#fafafa"/><stop offset="1" stop-color="#eee"/></linearGradient><linearGradient id="g39" x2="1" href="#P" gradientTransform="matrix(6.89,0,0,9.76,784.969,367.696)"><stop stop-color="#fafafa"/><stop offset="1" stop-color="#eee"/></linearGradient><linearGradient id="g40" x2="1" href="#P" gradientTransform="matrix(6.86,0,0,9.76,795.719,367.696)"><stop stop-color="#fafafa"/><stop offset="1" stop-color="#eee"/></linearGradient><linearGradient id="g41" x2="1" href="#P" gradientTransform="matrix(6.65,0,0,9.75,802.459,370.307)"><stop stop-color="#fafafa"/><stop offset="1" stop-color="#eee"/></linearGradient><linearGradient id="g42" x2="1" href="#P" gradientTransform="matrix(5.127,0,0,9.762,829.436,367.689)"><stop stop-color="#fafafa"/><stop offset="1" stop-color="#eee"/></linearGradient><linearGradient id="g43" x2="1" href="#P" gradientTransform="matrix(4.829,0,0,7.148,834.312,370.304)"><stop stop-color="#fafafa"/><stop offset="1" stop-color="#eee"/></linearGradient><linearGradient id="g44" x2="1" href="#P" gradientTransform="matrix(6.68,0,0,7.15,838.919,370.296)"><stop stop-color="#fafafa"/><stop offset="1" stop-color="#eee"/></linearGradient><linearGradient id="g45" x2="1" href="#P" gradientTransform="matrix(6.69,0,0,7.15,846.219,370.296)"><stop stop-color="#fafafa"/><stop offset="1" stop-color="#eee"/></linearGradient><linearGradient id="g46" x2="1" href="#P" gradientTransform="matrix(6.87,0,0,9.75,853.649,370.307)"><stop stop-color="#fafafa"/><stop offset="1" stop-color="#eee"/></linearGradient><linearGradient id="g47" x2="1" href="#P" gradientTransform="matrix(1.76,0,0,9.68,861.399,367.767)"><stop stop-color="#fafafa"/><stop offset="1" stop-color="#eee"/></linearGradient><linearGradient id="g48" x2="1" href="#P" gradientTransform="matrix(6.056,0,0,9.762,864.572,367.689)"><stop stop-color="#fafafa"/><stop offset="1" stop-color="#eee"/></linearGradient><linearGradient id="g49" x2="1" href="#P" gradientTransform="matrix(1.941,0,0,1.938,871.669,375.514)"><stop stop-color="#fafafa"/><stop offset="1" stop-color="#eee"/></linearGradient><linearGradient id="g50" x2="1" href="#P" gradientTransform="matrix(6.646,0,0,7.149,874.743,370.291)"><stop stop-color="#fafafa"/><stop offset="1" stop-color="#eee"/></linearGradient><linearGradient id="g51" x2="1" href="#P" gradientTransform="matrix(6.99,0,0,7.149,881.979,370.307)"><stop stop-color="#fafafa"/><stop offset="1" stop-color="#eee"/></linearGradient><linearGradient id="g52" x2="1" href="#P" gradientTransform="matrix(10.064,0,0,7.148,889.727,370.304)"><stop stop-color="#fafafa"/><stop offset="1" stop-color="#eee"/></linearGradient><linearGradient id="g53" x2="1" href="#P" gradientTransform="matrix(.002,0,0,.012,813.871,373.441)"><stop stop-color="#fafafa"/><stop offset="1" stop-color="#eee"/></linearGradient><linearGradient id="g54" x2="1" href="#P" gradientTransform="matrix(.081,0,0,.476,813.882,373.54)"><stop stop-color="#fafafa"/><stop offset="1" stop-color="#eee"/></linearGradient><linearGradient id="g55" x2="1" href="#P" gradientTransform="matrix(.012,0,0,.023,814.531,375.624)"><stop stop-color="#fafafa"/><stop offset="1" stop-color="#eee"/></linearGradient><linearGradient id="g56" x2="1" href="#P" gradientTransform="matrix(.044,0,0,.091,814.442,375.447)"><stop stop-color="#fafafa"/><stop offset="1" stop-color="#eee"/></linearGradient><linearGradient id="g57" x2="1" href="#P" gradientTransform="matrix(.31,0,0,.785,814.124,374.644)"><stop stop-color="#fafafa"/><stop offset="1" stop-color="#eee"/></linearGradient><linearGradient id="g58" x2="1" href="#P" gradientTransform="matrix(4.115,0,0,2.791,817.519,364.423)"><stop stop-color="#fafafa"/><stop offset="1" stop-color="#eee"/></linearGradient><linearGradient id="g59" x2="1" href="#P" gradientTransform="matrix(3.176,0,0,3.63,811.434,368.838)"><stop stop-color="#fafafa"/><stop offset="1" stop-color="#eee"/></linearGradient><linearGradient id="g60" x2="1" href="#P" gradientTransform="matrix(3.129,0,0,3.568,824.234,367.318)"><stop stop-color="#fafafa"/><stop offset="1" stop-color="#eee"/></linearGradient><linearGradient id="g61" x2="1" href="#P" gradientTransform="matrix(12.261,0,0,5.392,814.127,372.837)"><stop stop-color="#fafafa"/><stop offset="1" stop-color="#eee"/></linearGradient><linearGradient id="g62" x2="1" href="#P" gradientTransform="matrix(12.45,0,0,7.399,813.829,367.106)"><stop stop-color="#fafafa"/><stop offset="1" stop-color="#eee"/></linearGradient></defs><style>.a{fill:#fff}.b{fill:#0097a7}.c{fill:#00acc1}.d{opacity:.1;fill:#212121}.e{fill:#424242}.f{fill:#e0e0e0}.g{fill:#bdbdbd}.h{opacity:.6;fill:#212121}.i{fill:#f5f5f5}.j{opacity:.8;fill:#26c6da}.k{display:none;fill:#0097a7}.l{fill:url(#g1)}.m{fill:url(#g2)}.n{fill:url(#g3)}.o{fill:url(#g4)}.p{fill:url(#g5)}.q{fill:url(#g6)}.r{fill:url(#g7)}.s{fill:url(#g8)}.t{fill:url(#g9)}.u{fill:url(#g10)}.v{fill:url(#g11)}.w{fill:url(#g12)}.x{fill:url(#g13)}.y{fill:url(#g14)}.z{fill:url(#g15)}.A{fill:url(#g16)}.B{fill:url(#g17)}.C{fill:url(#g18)}.D{fill:url(#g19)}.E{fill:url(#g20)}.F{fill:url(#g21)}.G{fill:url(#g22)}.H{fill:url(#g23)}.I{fill:url(#g24)}.J{fill:url(#g25)}.K{fill:url(#g26)}.L{fill:url(#g27)}.M{fill:url(#g28)}.N{fill:url(#g29)}.O{fill:url(#g30)}.P{fill:url(#g31)}.Q{fill:url(#g32)}.R{fill:url(#g33)}.S{fill:url(#g34)}.T{fill:url(#g35)}.U{fill:url(#g36)}.V{fill:url(#g37)}.W{fill:url(#g38)}.X{fill:url(#g39)}.Y{fill:url(#g40)}.Z{fill:url(#g41)}.a0{fill:url(#g42)}.a1{fill:url(#g43)}.a2{fill:url(#g44)}.a3{fill:url(#g45)}.a4{fill:url(#g46)}.a5{fill:url(#g47)}.a6{fill:url(#g48)}.a7{fill:url(#g49)}.a8{fill:url(#g50)}.a9{fill:url(#g51)}.aa{fill:url(#g52)}.ab{fill:url(#g53)}.ac{fill:url(#g54)}.ad{fill:url(#g55)}.ae{fill:url(#g56)}.af{fill:url(#g57)}.ag{fill:url(#g58)}.ah{fill:url(#g59)}.ai{fill:url(#g60)}.aj{fill:url(#g61)}.ak{fill:url(#g62)}</style><g style="display:none"><path class="a" d="m-76 392h500v-500h-500z"/><path class="a" d="m444 392h750v-500h-750z"/></g><g style="display:none"><path class="b" d="m1194 392h-750v-500h750z"/><path class="c" d="m900 77.8l-3.3-3.3-3.2 3.1-3.1-3.1-3.3 3.3 3.1 3.1-3.1 3.2 3.3 3.3 3.1-3.2 3.2 3.2 3.3-3.3-3.2-3.2z"/><path class="c" d="m697.7 197l-3.3-3.3-3.2 3.1-3.1-3.1-3.3 3.3 3.1 3.1-3.1 3.2 3.3 3.3 3.1-3.2 3.2 3.2 3.3-3.3-3.2-3.2z"/><path class="c" d="m757.9 55.8l-3.3-3.3-3.2 3.2-3.1-3.2-3.3 3.3 3.1 3.2-3.1 3.2 3.3 3.3 3.1-3.2 3.2 3.2 3.3-3.3-3.1-3.2z"/><path class="c" d="m966 221.3l-3.3-3.4-3.2 3.2-3.1-3.2-3.3 3.4 3.1 3.1-3.1 3.2 3.3 3.3 3.1-3.2 3.2 3.2 3.3-3.3-3.1-3.2z"/><path fill-rule="evenodd" class="c" d="m697.7 92.2c-2.7 0-4.8-2.1-4.8-4.8 0-2.7 2.1-4.8 4.8-4.8 2.7 0 4.8 2.1 4.8 4.8 0 2.7-2.1 4.8-4.8 4.8zm0-7.6c-1.6 0-2.8 1.2-2.8 2.8 0 1.6 1.2 2.8 2.8 2.8 1.6 0 2.8-1.2 2.8-2.8 0-1.6-1.2-2.8-2.8-2.8z"/><path fill-rule="evenodd" class="c" d="m838.1 48.3c-2.7 0-4.8-2.1-4.8-4.8 0-2.7 2.1-4.8 4.8-4.8 2.7 0 4.8 2.1 4.8 4.8 0 2.7-2.1 4.8-4.8 4.8zm0-7.6c-1.6 0-2.8 1.2-2.8 2.8 0 1.6 1.2 2.8 2.8 2.8 1.6 0 2.8-1.2 2.8-2.8 0-1.6-1.2-2.8-2.8-2.8z"/><path fill-rule="evenodd" class="c" d="m973.6 116c-2.6 0-4.8-2.1-4.8-4.8 0-2.7 2.2-4.8 4.8-4.8 2.7 0 4.9 2.1 4.9 4.8 0 2.7-2.2 4.8-4.9 4.8zm0-7.6c-1.5 0-2.8 1.2-2.8 2.8 0 1.6 1.3 2.8 2.8 2.8 1.6 0 2.9-1.2 2.9-2.8 0-1.6-1.3-2.8-2.9-2.8z"/><path fill-rule="evenodd" class="c" d="m912 195.8c-2.7 0-4.9-2.1-4.9-4.8 0-2.7 2.2-4.8 4.9-4.8 2.6 0 4.8 2.1 4.8 4.8 0 2.7-2.2 4.8-4.8 4.8zm0-7.6c-1.6 0-2.9 1.2-2.9 2.8 0 1.5 1.3 2.8 2.9 2.8 1.5 0 2.8-1.3 2.8-2.8 0-1.6-1.3-2.8-2.8-2.8z"/><path fill-rule="evenodd" class="c" d="m745 257c-2.7 0-4.9-2.2-4.9-4.9 0-2.6 2.2-4.8 4.9-4.8 2.6 0 4.8 2.2 4.8 4.8 0 2.7-2.2 4.9-4.8 4.9zm0-7.7c-1.6 0-2.9 1.3-2.9 2.8 0 1.6 1.3 2.9 2.9 2.9 1.5 0 2.8-1.3 2.8-2.9 0-1.5-1.3-2.8-2.8-2.8z"/><path class="c" d="m762.9 90.3c0 5-4.1 9-9 9-5 0-9-4-9-9 0-4.9 4-9 9-9 4.9 0 9 4.1 9 9z"/><path class="c" d="m762.9 193.8c0 2.5-2.1 4.5-4.6 4.5-2.4 0-4.5-2-4.5-4.5 0-2.5 2.1-4.5 4.5-4.5 2.5 0 4.6 2 4.6 4.5z"/><path class="c" d="m987.5 179.2c0 2.5-2 4.6-4.5 4.6-2.5 0-4.5-2.1-4.5-4.6 0-2.4 2-4.5 4.5-4.5 2.5 0 4.5 2.1 4.5 4.5z"/><path class="c" d="m672.3 121.3c0 2.5-2 4.6-4.5 4.6-2.5 0-4.6-2.1-4.6-4.6 0-2.4 2.1-4.5 4.6-4.5 2.5 0 4.5 2.1 4.5 4.5z"/><path class="c" d="m898.1 121.3c0 2.5-2.1 4.6-4.6 4.6-2.5 0-4.5-2.1-4.5-4.6 0-2.4 2-4.5 4.5-4.5 2.5 0 4.6 2.1 4.6 4.5z"/><path class="c" d="m890.9 247.3c0 3.7-3 6.8-6.8 6.8-3.7 0-6.8-3.1-6.8-6.8 0-3.8 3.1-6.8 6.8-6.8 3.8 0 6.8 3 6.8 6.8z"/><path fill-rule="evenodd" class="a" d="m713.6 191.4v-21.1h-41.3v-16.8l47.4-60.9h12.8v60.7h12.5v17h-12.5v21.1zm-22.3-38.1h24.4v-32z"/><path fill-rule="evenodd" class="a" d="m934.3 191.4v-21.1h-41.3v-16.8l47.4-60.9h12.9v60.7h12.4v17h-12.4v21.1zm-22.4-38.1h24.5v-32z"/><path class="d" d="m893.6 198l0.4-0.3c0.5-0.5 0.6-1.4 0-2l-7.5-8.2c7.8-9.9 12.7-22.2 13.3-35.7 1.5-34-24.9-62.8-59-64.3-34-1.6-62.8 24.8-64.4 58.9-1.5 34 24.9 62.9 59 64.4 13.5 0.6 26.2-3.2 36.6-10.1l7.6 8.2c0.5 0.6 1.4 0.6 2 0.1l0.3-0.3 56.3 61.4h21.3z"/><path class="e" d="m966.4 277.6l-91.6-91.6-11.8 11.8 91.6 91.6c3.4 3.4 9.1 3.2 12.2-0.6 2.8-3.3 2.6-8.2-0.4-11.2z"/><path class="f" d="m854.5 192.1l11.1 11c0.5 0.6 1.4 0.6 2 0l12.5-12.5c0.6-0.6 0.6-1.5 0-2l-11-11.1z"/><path class="g" d="m870.8 179.2l1.4 1.5-11.8 17.3-5.2-5.2z"/><path class="h" d="m868 202.8l11.8-11.8 0.8 0.8-9.2 14.3z"/><path fill-rule="evenodd" class="i" d="m884.1 142c0 36-29.1 65.1-65.1 65.1-36 0-65.1-29.1-65.1-65.1 0-36 29.1-65.1 65.1-65.1 36 0 65.1 29.1 65.1 65.1zm-13.4 0c0-28.5-23.2-51.7-51.7-51.7-28.5 0-51.7 23.2-51.7 51.7 0 28.5 23.2 51.7 51.7 51.7 28.5 0 51.7-23.2 51.7-51.7z"/><path class="j" d="m870.7 142c0 28.5-23.2 51.7-51.7 51.7-28.5 0-51.7-23.2-51.7-51.7 0-28.5 23.2-51.7 51.7-51.7 28.5 0 51.7 23.2 51.7 51.7z"/><path class="a" d="m784.7 107.7c-7.5 7.5-12 15.1-10 17 1.9 2 9.5-2.5 17-10 7.5-7.5 12-15.1 10-17-1.9-2-9.5 2.5-17 10z"/><path class="a" d="m722.6 233h-4.7v-16.9h7.3q1.3 0 2.3 0.5 1 0.5 1.8 1.4 0.8 0.8 1.2 1.9 0.4 1 0.4 2.1 0 1.5-0.7 2.8-0.7 1.3-2 2.2-1.2 0.8-2.9 0.8h-2.7zm0-12.8v3.6h2.4q0.3 0 0.6-0.2 0.2-0.1 0.4-0.5 0.2-0.4 0.2-1.1 0-0.7-0.2-1.1-0.2-0.4-0.5-0.5-0.3-0.2-0.6-0.2zm7.4 12.8l5.4-16.8h5.2l5.4 16.8h-4.7l-1-3.3h-4.5l-1 3.3zm6.4-6.4h3.1l-1.5-5.9zm17.5 6.5q-1.7 0-3.1-0.6-1.5-0.6-2.7-1.7-1.1-1.1-1.8-2.7-0.6-1.6-0.6-3.7 0-1.8 0.7-3.3 0.6-1.5 1.8-2.7 1.2-1.1 2.7-1.8 1.6-0.6 3.4-0.6 2.3 0 4.2 1 1.8 1 2.7 2.7l-3.4 2.6q-0.5-1-1.5-1.6-1-0.6-2.1-0.6-0.9 0-1.5 0.3-0.7 0.4-1.3 1-0.5 0.6-0.7 1.4-0.3 0.8-0.3 1.8 0 1 0.3 1.8 0.3 0.8 0.8 1.4 0.5 0.5 1.2 0.9 0.7 0.3 1.6 0.3 1.1 0 2.1-0.6 1.1-0.5 1.9-1.5v4.5q-1.9 1.7-4.4 1.7zm4.1-0.1v-5.7h-3.1v-3.3h7v9zm10.7-4.1h7.4v4.1h-12v-16.9h11.8v4.1h-7.2v2.3h6.1v3.8h-6.1zm26.2 4l-6.7-8.3v8.3h-4.6v-16.8h3.6l6.8 8.5v-8.5h4.6v16.8zm14.2 0.2q-1.9 0-3.5-0.7-1.6-0.8-2.7-2-1.1-1.2-1.7-2.8-0.6-1.5-0.6-3.1 0-1.7 0.6-3.2 0.7-1.6 1.8-2.8 1.2-1.2 2.7-1.9 1.6-0.6 3.5-0.6 1.9 0 3.5 0.7 1.6 0.7 2.7 1.9 1.1 1.3 1.7 2.8 0.6 1.5 0.6 3.2 0 1.6-0.6 3.1-0.7 1.6-1.8 2.8-1.2 1.2-2.7 1.9-1.6 0.7-3.5 0.7zm-3.8-8.6q0 0.9 0.2 1.7 0.3 0.8 0.7 1.4 0.5 0.6 1.2 1 0.8 0.4 1.8 0.4 0.9 0 1.7-0.4 0.7-0.4 1.2-1 0.4-0.7 0.7-1.5 0.2-0.8 0.2-1.6 0-0.9-0.2-1.7-0.3-0.8-0.7-1.4-0.5-0.6-1.3-1-0.7-0.3-1.7-0.3-1 0-1.7 0.3-0.7 0.4-1.2 1.1-0.5 0.6-0.7 1.4-0.2 0.8-0.2 1.6zm27.3-8.4v4h-4.9v12.8h-4.6v-12.8h-4.9v-4zm11 16.8h-4.6v-16.8h11.5v4h-6.9v2.8h5.7v3.7h-5.7zm16.1 0.2q-1.9 0-3.5-0.7-1.5-0.8-2.7-2-1.1-1.2-1.7-2.7-0.6-1.6-0.6-3.2 0-1.7 0.6-3.2 0.7-1.5 1.8-2.7 1.2-1.2 2.8-1.9 1.6-0.7 3.4-0.7 2 0 3.5 0.7 1.6 0.7 2.7 2 1.1 1.2 1.7 2.7 0.6 1.6 0.6 3.2 0 1.6-0.6 3.2-0.6 1.5-1.8 2.7-1.1 1.2-2.7 1.9-1.6 0.7-3.5 0.7zm-3.8-8.6q0 0.9 0.2 1.7 0.3 0.8 0.8 1.4 0.4 0.6 1.1 1 0.8 0.4 1.8 0.4 1 0 1.7-0.4 0.8-0.4 1.2-1 0.5-0.7 0.7-1.5 0.2-0.8 0.2-1.6 0-0.9-0.2-1.6-0.2-0.8-0.7-1.5-0.5-0.6-1.2-0.9-0.8-0.4-1.7-0.4-1 0-1.8 0.4-0.7 0.4-1.2 1-0.4 0.6-0.7 1.4-0.2 0.8-0.2 1.6zm21.8 8.6q-2 0-3.5-0.7-1.4-0.6-2.4-1.8-0.9-1.2-1.3-2.7-0.4-1.5-0.4-3.1v-8.7h4.6v8.7q0 0.8 0.2 1.5 0.1 0.8 0.5 1.4 0.3 0.6 0.9 0.9 0.6 0.4 1.4 0.4 0.8 0 1.4-0.4 0.5-0.3 0.9-0.9 0.3-0.6 0.5-1.4 0.2-0.7 0.2-1.5v-8.7h4.6v8.7q0 1.7-0.5 3.2-0.4 1.6-1.4 2.7-0.9 1.1-2.3 1.8-1.5 0.6-3.4 0.6zm21.6-0.2l-6.7-8.2v8.2h-4.6v-16.8h3.6l6.7 8.6v-8.6h4.7v16.8zm13 0h-6.4v-16.8h6.4q2.8 0 4.7 1.1 1.9 1.1 2.9 3.1 0.9 1.9 0.9 4.2 0 2.6-1 4.5-1.1 1.9-3 2.9-1.9 1-4.5 1zm3.8-8.4q0-1.3-0.4-2.3-0.5-1-1.3-1.5-0.9-0.6-2.1-0.6h-1.8v8.8h1.8q1.3 0 2.1-0.6 0.8-0.5 1.3-1.5 0.4-1.1 0.4-2.3z"/><path class="e" d="m861 270.1h-82.6c-1.7 0-3.2-1.4-3.2-3.2v-16.4c0-1.8 1.5-3.2 3.2-3.2h82.6c1.8 0 3.2 1.4 3.2 3.2v16.4c0 1.8-1.4 3.2-3.2 3.2z"/><path class="a" d="m792.6 263.1q-0.9 0-1.8-0.4-0.9-0.3-1.5-0.9-0.7-0.7-1-1.6-0.4-0.9-0.4-2.1 0-1 0.4-1.9 0.4-0.9 1-1.5 0.7-0.7 1.6-1.1 0.9-0.3 2-0.3 1.3 0 2.3 0.5 1.1 0.6 1.6 1.6l-2 1.5q-0.3-0.6-0.8-0.9-0.6-0.4-1.2-0.4-0.5 0-0.9 0.2-0.4 0.2-0.7 0.5-0.3 0.4-0.5 0.9-0.1 0.4-0.1 1 0 0.5 0.2 1 0.1 0.5 0.4 0.8 0.3 0.3 0.7 0.5 0.4 0.2 0.9 0.2 0.7 0 1.2-0.3 0.6-0.3 1.1-0.9v2.6q-1.1 1-2.5 1zm2.4-0.1v-3.2h-1.8v-2h4v5.2zm7.8 0.1q-1.1 0-2-0.4-0.9-0.4-1.5-1.1-0.7-0.8-1-1.6-0.4-0.9-0.4-1.9 0-0.9 0.4-1.8 0.4-0.9 1-1.5 0.7-0.7 1.6-1.1 0.9-0.4 2-0.4 1.1 0 2 0.4 0.9 0.4 1.5 1.1 0.7 0.7 1 1.6 0.4 0.9 0.4 1.8 0 1-0.4 1.8-0.4 0.9-1 1.6-0.7 0.7-1.6 1.1-0.9 0.4-2 0.4zm-2.2-4.9q0 0.5 0.2 0.9 0.1 0.5 0.4 0.8 0.3 0.4 0.7 0.6 0.4 0.2 1 0.2 0.5 0 1-0.2 0.4-0.2 0.6-0.6 0.3-0.4 0.4-0.8 0.2-0.5 0.2-1 0-0.4-0.2-0.9-0.1-0.4-0.4-0.8-0.3-0.4-0.7-0.6-0.4-0.2-1-0.2-0.5 0-0.9 0.2-0.5 0.3-0.7 0.6-0.3 0.4-0.4 0.9-0.2 0.4-0.2 0.9zm17.3-4.9h2.6v9.7h-2.6v-3.8h-3.3v3.8h-2.6v-9.7h2.6v3.6h3.3zm8.6 9.8q-1.1 0-2-0.5-0.9-0.4-1.5-1.1-0.7-0.7-1-1.6-0.4-0.8-0.4-1.8 0-0.9 0.4-1.8 0.4-0.9 1-1.6 0.7-0.7 1.6-1.1 0.9-0.4 2-0.4 1.1 0 2 0.5 0.9 0.4 1.5 1.1 0.7 0.7 1 1.6 0.4 0.8 0.4 1.8 0 0.9-0.4 1.8-0.4 0.9-1 1.6-0.7 0.6-1.6 1.1-0.9 0.4-2 0.4zm-2.2-5q0 0.5 0.2 1 0.1 0.4 0.4 0.8 0.3 0.4 0.7 0.6 0.4 0.2 1 0.2 0.5 0 1-0.2 0.4-0.2 0.6-0.6 0.3-0.4 0.4-0.8 0.2-0.5 0.2-1 0-0.5-0.2-0.9-0.1-0.5-0.4-0.8-0.2-0.4-0.7-0.6-0.4-0.2-0.9-0.2-0.6 0-1 0.2-0.5 0.2-0.7 0.6-0.3 0.4-0.4 0.8-0.2 0.5-0.2 0.9zm18.3 4.9h-2.7v-5.1l-1.6 3.6h-1.4l-1.6-3.6v5.1h-2.7v-9.7h2.9l2.1 4.5 2.1-4.5h2.9zm4.3-2.3h4.2v2.3h-6.9v-9.7h6.8v2.3h-4.1v1.4h3.5v2.2h-3.5z"/></g><path class="k" d="m424 392h-500v-500h500z"/><path class="c" d="m255 77.8l-3.3-3.3-3.2 3.1-3.1-3.1-3.3 3.3 3.1 3.1-3.1 3.2 3.3 3.3 3.1-3.2 3.2 3.2 3.3-3.3-3.2-3.2z"/><path class="c" d="m52.7 197l-3.3-3.3-3.2 3.1-3.1-3.1-3.3 3.3 3.1 3.1-3.1 3.2 3.3 3.3 3.1-3.2 3.2 3.2 3.3-3.3-3.2-3.2z"/><path class="c" d="m112.9 55.8l-3.3-3.3-3.2 3.2-3.1-3.2-3.3 3.3 3.1 3.2-3.1 3.2 3.3 3.3 3.1-3.2 3.2 3.2 3.3-3.3-3.1-3.2z"/><path class="c" d="m321 221.3l-3.3-3.4-3.2 3.2-3.1-3.2-3.3 3.4 3.1 3.1-3.1 3.2 3.3 3.3 3.1-3.2 3.2 3.2 3.3-3.3-3.1-3.2z"/><path fill-rule="evenodd" class="c" d="m52.7 92.2c-2.7 0-4.8-2.1-4.8-4.8 0-2.7 2.1-4.8 4.8-4.8 2.7 0 4.8 2.1 4.8 4.8 0 2.7-2.1 4.8-4.8 4.8zm0-7.6c-1.6 0-2.8 1.2-2.8 2.8 0 1.6 1.2 2.8 2.8 2.8 1.6 0 2.8-1.2 2.8-2.8 0-1.6-1.2-2.8-2.8-2.8z"/><path fill-rule="evenodd" class="c" d="m193.1 48.3c-2.7 0-4.8-2.1-4.8-4.8 0-2.7 2.1-4.8 4.8-4.8 2.7 0 4.8 2.1 4.8 4.8 0 2.7-2.1 4.8-4.8 4.8zm0-7.6c-1.6 0-2.8 1.2-2.8 2.8 0 1.6 1.2 2.8 2.8 2.8 1.6 0 2.8-1.2 2.8-2.8 0-1.6-1.2-2.8-2.8-2.8z"/><path fill-rule="evenodd" class="c" d="m328.6 116c-2.6 0-4.8-2.1-4.8-4.8 0-2.7 2.2-4.8 4.8-4.8 2.7 0 4.9 2.1 4.9 4.8 0 2.7-2.2 4.8-4.9 4.8zm0-7.6c-1.5 0-2.8 1.2-2.8 2.8 0 1.6 1.3 2.8 2.8 2.8 1.6 0 2.9-1.2 2.9-2.8 0-1.6-1.3-2.8-2.9-2.8z"/><path fill-rule="evenodd" class="c" d="m267 195.8c-2.7 0-4.9-2.1-4.9-4.8 0-2.7 2.2-4.8 4.9-4.8 2.6 0 4.8 2.1 4.8 4.8 0 2.7-2.2 4.8-4.8 4.8zm0-7.6c-1.6 0-2.9 1.2-2.9 2.8 0 1.5 1.3 2.8 2.9 2.8 1.5 0 2.8-1.3 2.8-2.8 0-1.6-1.3-2.8-2.8-2.8z"/><path fill-rule="evenodd" class="c" d="m100 257c-2.7 0-4.9-2.2-4.9-4.9 0-2.6 2.2-4.8 4.9-4.8 2.6 0 4.8 2.2 4.8 4.8 0 2.7-2.2 4.9-4.8 4.9zm0-7.7c-1.6 0-2.9 1.3-2.9 2.8 0 1.6 1.3 2.9 2.9 2.9 1.5 0 2.8-1.3 2.8-2.9 0-1.5-1.3-2.8-2.8-2.8z"/><path class="c" d="m117.9 90.3c0 5-4.1 9-9 9-5 0-9-4-9-9 0-4.9 4-9 9-9 4.9 0 9 4.1 9 9z"/><path class="c" d="m117.9 193.8c0 2.5-2.1 4.5-4.6 4.5-2.4 0-4.5-2-4.5-4.5 0-2.5 2.1-4.5 4.5-4.5 2.5 0 4.6 2 4.6 4.5z"/><path class="c" d="m342.5 179.2c0 2.5-2 4.6-4.5 4.6-2.5 0-4.5-2.1-4.5-4.6 0-2.4 2-4.5 4.5-4.5 2.5 0 4.5 2.1 4.5 4.5z"/><path class="c" d="m27.3 121.3c0 2.5-2 4.6-4.5 4.6-2.5 0-4.6-2.1-4.6-4.6 0-2.4 2.1-4.5 4.6-4.5 2.5 0 4.5 2.1 4.5 4.5z"/><path class="c" d="m253.1 121.3c0 2.5-2.1 4.6-4.6 4.6-2.5 0-4.5-2.1-4.5-4.6 0-2.4 2-4.5 4.5-4.5 2.5 0 4.6 2.1 4.6 4.5z"/><path class="c" d="m245.9 247.3c0 3.7-3 6.8-6.8 6.8-3.7 0-6.8-3.1-6.8-6.8 0-3.8 3.1-6.8 6.8-6.8 3.8 0 6.8 3 6.8 6.8z"/><path fill-rule="evenodd" class="a" d="m68.6 191.4v-21.1h-41.3v-16.8l47.4-60.9h12.8v60.7h12.5v17h-12.5v21.1zm-22.3-38.1h24.4v-32z"/><path fill-rule="evenodd" class="a" d="m289.3 191.4v-21.1h-41.3v-16.8l47.4-60.9h12.9v60.7h12.4v17h-12.4v21.1zm-22.4-38.1h24.5v-32z"/><path class="d" d="m248.6 198l0.4-0.3c0.5-0.5 0.6-1.4 0-2l-7.5-8.2c7.8-9.9 12.7-22.2 13.3-35.7 1.5-34-24.9-62.8-59-64.3-34-1.6-62.8 24.8-64.4 58.9-1.5 34 24.9 62.9 59 64.4 13.5 0.6 26.2-3.2 36.6-10.1l7.6 8.2c0.5 0.6 1.4 0.6 2 0.1l0.3-0.3 56.3 61.4h21.3z"/><path class="e" d="m321.4 277.6l-91.6-91.6-11.8 11.8 91.6 91.6c3.4 3.4 9.1 3.2 12.2-0.6 2.8-3.3 2.6-8.2-0.4-11.2z"/><path class="f" d="m209.5 192.1l11.1 11c0.5 0.6 1.4 0.6 2 0l12.5-12.5c0.6-0.6 0.6-1.5 0-2l-11-11.1z"/><path class="g" d="m225.8 179.2l1.4 1.5-11.8 17.3-5.2-5.2z"/><path class="h" d="m223 202.8l11.8-11.8 0.8 0.8-9.2 14.3z"/><path fill-rule="evenodd" class="i" d="m239.1 142c0 36-29.1 65.1-65.1 65.1-36 0-65.1-29.1-65.1-65.1 0-36 29.1-65.1 65.1-65.1 36 0 65.1 29.1 65.1 65.1zm-13.4 0c0-28.5-23.2-51.7-51.7-51.7-28.5 0-51.7 23.2-51.7 51.7 0 28.5 23.2 51.7 51.7 51.7 28.5 0 51.7-23.2 51.7-51.7z"/><path class="j" d="m225.7 142c0 28.5-23.2 51.7-51.7 51.7-28.5 0-51.7-23.2-51.7-51.7 0-28.5 23.2-51.7 51.7-51.7 28.5 0 51.7 23.2 51.7 51.7z"/><path class="a" d="m139.7 107.7c-7.5 7.5-12 15.1-10 17 1.9 2 9.5-2.5 17-10 7.5-7.5 12-15.1 10-17-1.9-2-9.5 2.5-17 10z"/><path class="a" d="m77.6 233h-4.7v-16.9h7.3q1.3 0 2.3 0.5 1 0.5 1.8 1.4 0.8 0.8 1.2 1.9 0.4 1 0.4 2.1 0 1.5-0.7 2.8-0.7 1.3-2 2.2-1.2 0.8-2.9 0.8h-2.7zm0-12.8v3.6h2.4q0.3 0 0.6-0.2 0.2-0.1 0.4-0.5 0.2-0.4 0.2-1.1 0-0.7-0.2-1.1-0.2-0.4-0.5-0.5-0.3-0.2-0.6-0.2zm7.4 12.8l5.4-16.8h5.2l5.4 16.8h-4.7l-1-3.3h-4.5l-1 3.3zm6.4-6.4h3.1l-1.5-5.9zm17.5 6.5q-1.7 0-3.1-0.6-1.5-0.6-2.7-1.7-1.1-1.1-1.8-2.7-0.6-1.6-0.6-3.7 0-1.8 0.7-3.3 0.6-1.5 1.8-2.7 1.2-1.1 2.7-1.8 1.6-0.6 3.4-0.6 2.3 0 4.2 1 1.8 1 2.7 2.7l-3.4 2.6q-0.5-1-1.5-1.6-1-0.6-2.1-0.6-0.9 0-1.5 0.3-0.7 0.4-1.3 1-0.5 0.6-0.7 1.4-0.3 0.8-0.3 1.8 0 1 0.3 1.8 0.3 0.8 0.8 1.4 0.5 0.5 1.2 0.9 0.7 0.3 1.6 0.3 1.1 0 2.1-0.6 1.1-0.5 1.9-1.5v4.5q-1.9 1.7-4.4 1.7zm4.1-0.1v-5.7h-3.1v-3.3h7v9zm10.7-4.1h7.4v4.1h-12v-16.9h11.8v4.1h-7.2v2.3h6.1v3.8h-6.1zm26.2 4l-6.7-8.3v8.3h-4.6v-16.8h3.6l6.8 8.5v-8.5h4.6v16.8zm14.2 0.2q-1.9 0-3.5-0.7-1.6-0.8-2.7-2-1.1-1.2-1.7-2.8-0.6-1.5-0.6-3.1 0-1.7 0.6-3.2 0.7-1.6 1.8-2.8 1.2-1.2 2.7-1.9 1.6-0.6 3.5-0.6 1.9 0 3.5 0.7 1.6 0.7 2.7 1.9 1.1 1.3 1.7 2.8 0.6 1.5 0.6 3.2 0 1.6-0.6 3.1-0.7 1.6-1.8 2.8-1.2 1.2-2.7 1.9-1.6 0.7-3.5 0.7zm-3.8-8.6q0 0.9 0.2 1.7 0.3 0.8 0.7 1.4 0.5 0.6 1.2 1 0.8 0.4 1.8 0.4 0.9 0 1.7-0.4 0.7-0.4 1.2-1 0.4-0.7 0.7-1.5 0.2-0.8 0.2-1.6 0-0.9-0.2-1.7-0.3-0.8-0.7-1.4-0.5-0.6-1.3-1-0.7-0.3-1.7-0.3-1 0-1.7 0.3-0.7 0.4-1.2 1.1-0.5 0.6-0.7 1.4-0.2 0.8-0.2 1.6zm27.3-8.4v4h-4.9v12.8h-4.6v-12.8h-4.9v-4zm11 16.8h-4.6v-16.8h11.5v4h-6.9v2.8h5.7v3.7h-5.7zm16.1 0.2q-1.9 0-3.5-0.7-1.5-0.8-2.7-2-1.1-1.2-1.7-2.7-0.6-1.6-0.6-3.2 0-1.7 0.6-3.2 0.7-1.5 1.8-2.7 1.2-1.2 2.8-1.9 1.6-0.7 3.4-0.7 2 0 3.5 0.7 1.6 0.7 2.7 2 1.1 1.2 1.7 2.7 0.6 1.6 0.6 3.2 0 1.6-0.6 3.2-0.6 1.5-1.8 2.7-1.1 1.2-2.7 1.9-1.6 0.7-3.5 0.7zm-3.8-8.6q0 0.9 0.2 1.7 0.3 0.8 0.8 1.4 0.4 0.6 1.1 1 0.8 0.4 1.8 0.4 1 0 1.7-0.4 0.8-0.4 1.2-1 0.5-0.7 0.7-1.5 0.2-0.8 0.2-1.6 0-0.9-0.2-1.6-0.2-0.8-0.7-1.5-0.5-0.6-1.2-0.9-0.8-0.4-1.7-0.4-1 0-1.8 0.4-0.7 0.4-1.2 1-0.4 0.6-0.7 1.4-0.2 0.8-0.2 1.6zm21.8 8.6q-2 0-3.5-0.7-1.4-0.6-2.4-1.8-0.9-1.2-1.3-2.7-0.4-1.5-0.4-3.1v-8.7h4.6v8.7q0 0.8 0.2 1.5 0.1 0.8 0.5 1.4 0.3 0.6 0.9 0.9 0.6 0.4 1.4 0.4 0.8 0 1.4-0.4 0.5-0.3 0.9-0.9 0.3-0.6 0.5-1.4 0.2-0.7 0.2-1.5v-8.7h4.6v8.7q0 1.7-0.5 3.2-0.4 1.6-1.4 2.7-0.9 1.1-2.3 1.8-1.5 0.6-3.4 0.6zm21.6-0.2l-6.7-8.2v8.2h-4.6v-16.8h3.6l6.7 8.6v-8.6h4.7v16.8zm13 0h-6.4v-16.8h6.4q2.8 0 4.7 1.1 1.9 1.1 2.9 3.1 0.9 1.9 0.9 4.2 0 2.6-1 4.5-1.1 1.9-3 2.9-1.9 1-4.5 1zm3.8-8.4q0-1.3-0.4-2.3-0.5-1-1.3-1.5-0.9-0.6-2.1-0.6h-1.8v8.8h1.8q1.3 0 2.1-0.6 0.8-0.5 1.3-1.5 0.4-1.1 0.4-2.3z"/><g style="display:none"><path class="e" d="m216 270.1h-82.6c-1.7 0-3.2-1.4-3.2-3.2v-16.4c0-1.8 1.5-3.2 3.2-3.2h82.6c1.8 0 3.2 1.4 3.2 3.2v16.4c0 1.8-1.4 3.2-3.2 3.2z"/><path class="a" d="m147.6 263.1q-0.9 0-1.8-0.4-0.9-0.3-1.5-0.9-0.7-0.7-1-1.6-0.4-0.9-0.4-2.1 0-1 0.4-1.9 0.4-0.9 1-1.5 0.7-0.7 1.6-1.1 0.9-0.3 2-0.3 1.3 0 2.3 0.5 1.1 0.6 1.6 1.6l-2 1.5q-0.3-0.6-0.8-0.9-0.6-0.4-1.2-0.4-0.5 0-0.9 0.2-0.4 0.2-0.7 0.5-0.3 0.4-0.5 0.9-0.1 0.4-0.1 1 0 0.5 0.2 1 0.1 0.5 0.4 0.8 0.3 0.3 0.7 0.5 0.4 0.2 0.9 0.2 0.7 0 1.2-0.3 0.6-0.3 1.1-0.9v2.6q-1.1 1-2.5 1zm2.4-0.1v-3.2h-1.8v-2h4v5.2zm7.8 0.1q-1.1 0-2-0.4-0.9-0.4-1.5-1.1-0.7-0.8-1-1.6-0.4-0.9-0.4-1.9 0-0.9 0.4-1.8 0.4-0.9 1-1.5 0.7-0.7 1.6-1.1 0.9-0.4 2-0.4 1.1 0 2 0.4 0.9 0.4 1.5 1.1 0.7 0.7 1 1.6 0.4 0.9 0.4 1.8 0 1-0.4 1.8-0.4 0.9-1 1.6-0.7 0.7-1.6 1.1-0.9 0.4-2 0.4zm-2.2-4.9q0 0.5 0.2 0.9 0.1 0.5 0.4 0.8 0.3 0.4 0.7 0.6 0.4 0.2 1 0.2 0.5 0 1-0.2 0.4-0.2 0.6-0.6 0.3-0.4 0.4-0.8 0.2-0.5 0.2-1 0-0.4-0.2-0.9-0.1-0.4-0.4-0.8-0.3-0.4-0.7-0.6-0.4-0.2-1-0.2-0.5 0-0.9 0.2-0.5 0.3-0.7 0.6-0.3 0.4-0.4 0.9-0.2 0.4-0.2 0.9zm17.3-4.9h2.6v9.7h-2.6v-3.8h-3.3v3.8h-2.6v-9.7h2.6v3.6h3.3zm8.6 9.8q-1.1 0-2-0.5-0.9-0.4-1.5-1.1-0.7-0.7-1-1.6-0.4-0.8-0.4-1.8 0-0.9 0.4-1.8 0.4-0.9 1-1.6 0.7-0.7 1.6-1.1 0.9-0.4 2-0.4 1.1 0 2 0.5 0.9 0.4 1.5 1.1 0.7 0.7 1 1.6 0.4 0.8 0.4 1.8 0 0.9-0.4 1.8-0.4 0.9-1 1.6-0.7 0.6-1.6 1.1-0.9 0.4-2 0.4zm-2.2-5q0 0.5 0.2 1 0.1 0.4 0.4 0.8 0.3 0.4 0.7 0.6 0.4 0.2 1 0.2 0.5 0 1-0.2 0.4-0.2 0.6-0.6 0.3-0.4 0.4-0.8 0.2-0.5 0.2-1 0-0.5-0.2-0.9-0.1-0.5-0.4-0.8-0.2-0.4-0.7-0.6-0.4-0.2-0.9-0.2-0.6 0-1 0.2-0.5 0.2-0.7 0.6-0.3 0.4-0.4 0.8-0.2 0.5-0.2 0.9zm18.3 4.9h-2.7v-5.1l-1.6 3.6h-1.4l-1.6-3.6v5.1h-2.7v-9.7h2.9l2.1 4.5 2.1-4.5h2.9zm4.3-2.3h4.2v2.3h-6.9v-9.7h6.8v2.3h-4.1v1.4h3.5v2.2h-3.5z"/></g><g style="display:none"><path fill-rule="evenodd" class="l" d="m100.1 368.7v7.7q0 0.6-0.2 0.8-0.3 0.3-0.6 0.3-0.4 0-0.6-0.3-0.3-0.3-0.3-0.8v-0.1q-0.3 0.4-0.7 0.6-0.3 0.3-0.7 0.4-0.4 0.2-0.9 0.2-0.6 0-1.2-0.3-0.5-0.3-0.9-0.8-0.4-0.5-0.6-1.1-0.2-0.7-0.2-1.5 0-1.6 0.8-2.6 0.8-0.9 2.1-0.9 0.8 0 1.3 0.3 0.5 0.2 1 0.8v-2.6q0-0.6 0.2-0.8 0.3-0.3 0.7-0.3 0.4 0 0.6 0.2 0.2 0.3 0.2 0.8zm-1.8 5.2q0-0.7-0.2-1.2-0.2-0.5-0.6-0.8-0.4-0.3-0.9-0.3-0.5 0-0.8 0.3-0.4 0.3-0.6 0.8-0.2 0.5-0.2 1.2 0 0.7 0.2 1.2 0.2 0.5 0.6 0.7 0.4 0.3 0.8 0.3 0.5 0 0.9-0.2 0.4-0.3 0.6-0.8 0.2-0.5 0.2-1.2z"/><path fill-rule="evenodd" class="m" d="m107.4 375.2q0.1 0.1 0.1 0.4 0 0.2-0.2 0.6-0.2 0.3-0.5 0.6-0.4 0.3-1 0.5-0.5 0.2-1.3 0.2-1.7 0-2.6-1-1-1-1-2.6 0-0.8 0.3-1.5 0.2-0.6 0.6-1.1 0.5-0.5 1.1-0.8 0.7-0.2 1.5-0.2 1 0 1.7 0.4 0.8 0.5 1.2 1.2 0.3 0.6 0.3 1.4 0 0.6-0.4 0.8-0.3 0.2-1 0.2h-3.5q0 0.6 0.3 1.1 0.2 0.4 0.6 0.7 0.4 0.2 0.9 0.2 0.3 0 0.5-0.1 0.3-0.1 0.5-0.2 0.3-0.2 0.5-0.4 0.2-0.1 0.5-0.4 0.2-0.2 0.4-0.2 0.3 0 0.5 0.2zm-4.7-1.9h3.2q0-0.9-0.5-1.3-0.4-0.5-1.1-0.5-0.6 0-1.1 0.5-0.4 0.4-0.5 1.3z"/><path class="n" d="m113.9 374.3q-0.2-0.4-0.8-0.7-0.5-0.2-1.3-0.4-0.7-0.2-1.1-0.3-0.4-0.1-0.6-0.3-0.2-0.2-0.2-0.5 0-0.3 0.3-0.5 0.3-0.2 0.8-0.2 0.4 0 0.7 0.2 0.3 0.1 0.5 0.4 0.2 0.3 0.4 0.5 0.2 0.1 0.5 0.1 0.3 0 0.5-0.2 0.2-0.2 0.2-0.5 0-0.3-0.2-0.5-0.1-0.3-0.5-0.6-0.4-0.2-0.9-0.4-0.6-0.1-1.2-0.1-0.9 0-1.5 0.3-0.6 0.3-1 0.7-0.3 0.5-0.3 1 0 0.6 0.4 1 0.3 0.4 0.9 0.7 0.6 0.2 1.5 0.5 0.8 0.2 1.1 0.4 0.4 0.2 0.4 0.6 0 0.3-0.4 0.6-0.3 0.2-0.8 0.2-0.7 0-1.1-0.2-0.3-0.2-0.6-0.7-0.1-0.3-0.3-0.4-0.1-0.1-0.4-0.1-0.3 0-0.5 0.2-0.2 0.2-0.2 0.5 0 0.4 0.3 0.8 0.3 0.5 1 0.8 0.7 0.3 1.6 0.3 1 0 1.7-0.3 0.7-0.3 1-0.8 0.4-0.5 0.4-1.2 0-0.5-0.3-0.9z"/><path class="o" d="m116.6 370.6q-0.3-0.3-0.6-0.3-0.4 0-0.7 0.3-0.2 0.2-0.2 0.8v5q0 0.5 0.2 0.8 0.3 0.3 0.7 0.3 0.3 0 0.6-0.3 0.3-0.3 0.2-0.8v-5.1q0.1-0.5-0.2-0.7zm0-2.6q-0.3-0.2-0.6-0.2-0.4 0-0.6 0.2-0.3 0.3-0.3 0.6 0 0.4 0.2 0.7 0.3 0.2 0.7 0.2 0.3 0 0.6-0.2 0.2-0.3 0.2-0.7 0-0.4-0.2-0.6z"/><path fill-rule="evenodd" class="p" d="m124.5 371.6v5.1q0 0.9-0.1 1.5-0.2 0.6-0.6 1-0.4 0.5-1.1 0.7-0.7 0.2-1.7 0.2-0.9 0-1.6-0.3-0.7-0.2-1.1-0.7-0.4-0.4-0.4-0.8 0-0.3 0.2-0.5 0.3-0.2 0.6-0.2 0.4 0 0.6 0.3 0.2 0.2 0.3 0.4 0.2 0.2 0.4 0.3 0.2 0.1 0.4 0.2 0.3 0 0.6 0 0.7 0 1.1-0.2 0.3-0.1 0.5-0.5 0.1-0.3 0.2-0.7 0-0.4 0-1.3-0.4 0.6-0.9 0.9-0.6 0.3-1.3 0.3-0.9 0-1.5-0.5-0.7-0.4-1.1-1.2-0.3-0.8-0.3-1.9 0-0.8 0.2-1.4 0.2-0.7 0.6-1.1 0.4-0.4 0.9-0.7 0.6-0.2 1.2-0.2 0.7 0 1.3 0.3 0.5 0.3 1 0.9v-0.2q0-0.5 0.2-0.7 0.2-0.3 0.6-0.3 0.5 0 0.7 0.3 0.1 0.4 0.1 1zm-1.7 2.3q0-1.1-0.4-1.7-0.5-0.6-1.3-0.6-0.7 0-1.2 0.6-0.4 0.6-0.4 1.6 0 1.1 0.4 1.6 0.5 0.6 1.2 0.6 0.5 0 0.9-0.3 0.3-0.2 0.6-0.7 0.2-0.4 0.2-1.1z"/><path class="q" d="m131.9 372.2q-0.1-0.4-0.2-0.7-0.3-0.6-0.8-0.9-0.6-0.3-1.3-0.3-0.7 0-1.3 0.3-0.1 0.1-0.2 0.2-0.4 0.2-0.8 0.7v-0.2q0-0.3-0.1-0.6-0.1-0.2-0.3-0.3-0.2-0.1-0.4-0.1-0.4 0-0.6 0.3-0.2 0.2-0.2 0.7v5.1q0 0.5 0.2 0.8 0.3 0.3 0.7 0.3 0.4 0 0.6-0.3 0.3-0.3 0.2-0.8v-2.2q0-1.1 0.2-1.5 0.2-0.5 0.5-0.8 0.4-0.2 0.9-0.2 0.7 0 1 0.4 0.2 0.5 0.2 1.4v2.9q0 0.5 0.2 0.8 0.3 0.3 0.7 0.3 0.4 0 0.6-0.3 0.3-0.3 0.3-0.8v-3.3q0-0.6-0.1-0.9z"/><path fill-rule="evenodd" class="r" d="m139.2 375.2q0.2 0.1 0.2 0.4 0 0.2-0.2 0.6-0.2 0.3-0.6 0.6-0.3 0.2-0.9 0.4 0 0.1 0 0.1-0.6 0.2-1.3 0.2-1.7 0-2.7-1-0.9-1-0.9-2.6 0-0.8 0.2-1.5 0.3-0.6 0.7-1.1 0.4-0.5 1.1-0.8 0.6-0.2 1.4-0.2 1.1 0 1.8 0.4 0.7 0.5 1.1 1.2 0.4 0.6 0.4 1.4 0 0.6-0.4 0.8-0.4 0.2-1.1 0.2h-3.4q0 0.5 0.2 0.9 0 0.1 0 0.2 0.3 0.4 0.7 0.7 0.4 0.2 0.8 0.2 0 0 0 0 0.3 0 0.6-0.1 0.3-0.1 0.5-0.2 0.2-0.2 0.4-0.4 0.3-0.1 0.6-0.4 0.1-0.2 0.4-0.2 0.2 0 0.4 0.2zm-4.6-1.9h3.2q-0.1-0.9-0.5-1.3-0.4-0.5-1.1-0.5-0.7 0-1.1 0.5-0.4 0.4-0.5 1.3z"/><path fill-rule="evenodd" class="s" d="m146.9 368.7v7.7q0 0.6-0.3 0.8-0.2 0.3-0.6 0.3-0.3 0-0.6-0.3-0.2-0.3-0.2-0.8v-0.1q-0.4 0.4-0.7 0.6-0.3 0.3-0.8 0.4-0.4 0.2-0.8 0.2-0.7 0-1.2-0.3-0.5-0.3-0.9-0.8-0.4-0.5-0.6-1.1-0.2-0.7-0.2-1.5 0-1.6 0.8-2.6 0.8-0.9 2.1-0.9 0.8 0 1.3 0.3 0.5 0.2 1 0.8v-2.6q0-0.6 0.2-0.8 0.2-0.3 0.6-0.3 0.4 0 0.6 0.2 0.3 0.3 0.3 0.8zm-1.8 5.2q0-0.7-0.2-1.2-0.3-0.5-0.7-0.8-0.3-0.3-0.8-0.3-0.5 0-0.9 0.3-0.3 0.3-0.6 0.8-0.2 0.5-0.2 1.2 0 0.7 0.3 1.2 0.2 0.5 0.6 0.7 0.4 0.3 0.8 0.3 0.5 0 0.9-0.2 0.3-0.3 0.6-0.8 0.2-0.5 0.2-1.2z"/><path fill-rule="evenodd" class="t" d="m157.6 373.8q0 0.8-0.2 1.5-0.2 0.6-0.6 1.1-0.4 0.5-0.9 0.8-0.6 0.3-1.3 0.3-0.4 0-0.7-0.1-0.4-0.1-0.6-0.3-0.3-0.2-0.5-0.3-0.1-0.2-0.4-0.5v0.1q0 0.5-0.3 0.8-0.2 0.3-0.6 0.3-0.3 0-0.6-0.3-0.2-0.3-0.2-0.8v-7.6q0-0.6 0.2-0.8 0.3-0.3 0.6-0.3 0.4 0 0.7 0.3 0.2 0.2 0.2 0.7v2.7q0.5-0.5 1-0.8 0.5-0.3 1.3-0.3 0.8 0 1.5 0.4 0.7 0.5 1 1.2 0.4 0.8 0.4 1.9zm-1.8 0.1q0-0.7-0.2-1.2-0.2-0.5-0.6-0.8-0.3-0.3-0.8-0.3-0.5 0-0.9 0.3-0.4 0.3-0.6 0.8-0.2 0.5-0.2 1.2 0 1.1 0.4 1.6 0.5 0.6 1.3 0.6 0.7 0 1.1-0.6 0.5-0.6 0.5-1.6z"/><path class="u" d="m164 370.7q-0.1-0.2-0.3-0.3-0.2-0.1-0.4-0.1-0.2 0-0.4 0.1-0.1 0.1-0.3 0.4-0.1 0.3-0.3 0.7l-1.4 4.1-1.5-4.4q-0.1-0.4-0.3-0.7-0.2-0.2-0.6-0.2-0.2 0-0.4 0.1-0.2 0.1-0.3 0.3-0.1 0.2-0.1 0.4 0 0.3 0.2 0.7l2.1 5.5-0.1 0.4q-0.2 0.4-0.4 0.6-0.1 0.2-0.3 0.3-0.1 0.1-0.4 0.1-0.2 0-0.3 0-0.2 0-0.3-0.1-0.4 0-0.6 0.2-0.1 0.2-0.1 0.5 0 0.4 0.3 0.6 0.4 0.2 1.2 0.2 0.8 0 1.3-0.3 0.4-0.2 0.7-0.7 0.3-0.4 0.6-1.2l2.3-6q0.1-0.3 0.1-0.5 0.1-0.2 0.1-0.3 0-0.2-0.1-0.4z"/><path class="v" d="m185.3 370.5h0.4v-0.6q0-0.8 0.2-1.3 0.3-0.5 0.8-0.7 0.5-0.2 1.3-0.2 1.6 0 1.6 0.7 0 0.3-0.2 0.5-0.2 0.1-0.4 0.1-0.1 0-0.3 0-0.3 0-0.5 0-0.4 0-0.6 0.2-0.1 0.3-0.1 0.8v0.5h0.4q1 0 1 0.6 0 0.4-0.2 0.5-0.3 0.1-0.8 0.1h-0.4v4.7q0 0.5-0.3 0.8-0.2 0.3-0.6 0.3-0.4 0-0.6-0.3-0.3-0.3-0.3-0.8v-4.7h-0.4q-0.4 0-0.7-0.2-0.2-0.1-0.2-0.4 0-0.6 0.9-0.6z"/><path class="w" d="m191.1 374.9v1.5q0 0.5-0.3 0.8-0.2 0.3-0.6 0.3-0.4 0-0.6-0.3-0.3-0.3-0.3-0.8v-4.9q0-1.2 0.9-1.2 0.4 0 0.6 0.3 0.2 0.3 0.2 0.8 0.3-0.5 0.7-0.8 0.3-0.3 0.8-0.3 0.6 0 1.1 0.3 0.5 0.3 0.5 0.7 0 0.3-0.2 0.5-0.2 0.3-0.5 0.3-0.1 0-0.4-0.2-0.4-0.1-0.7-0.1-0.4 0-0.6 0.2-0.3 0.2-0.4 0.6-0.1 0.4-0.2 1 0 0.5 0 1.3z"/><path fill-rule="evenodd" class="x" d="m200.3 375.2q0.2 0.1 0.2 0.4 0 0.2-0.2 0.6-0.2 0.3-0.6 0.6-0.3 0.3-0.9 0.5-0.6 0.1-1.3 0.1-1.7 0-2.6-0.9-1-1-1-2.6 0-0.8 0.2-1.5 0.3-0.6 0.7-1.1 0.5-0.5 1.1-0.8 0.7-0.2 1.5-0.2 1 0 1.7 0.4 0.8 0.5 1.1 1.1 0.4 0.7 0.4 1.5 0 0.6-0.4 0.8-0.4 0.2-1.1 0.2h-3.4q0 0.6 0.2 1.1 0.3 0.4 0.7 0.7 0.4 0.2 0.8 0.2 0.4 0 0.6-0.1 0.3-0.1 0.5-0.2 0.3-0.2 0.5-0.4 0.2-0.1 0.5-0.4 0.1-0.2 0.4-0.2 0.3 0 0.4 0.2zm-4.6-1.9h3.2q-0.1-0.9-0.5-1.3-0.4-0.5-1.1-0.5-0.6 0-1.1 0.5-0.4 0.4-0.5 1.3z"/><path fill-rule="evenodd" class="y" d="m207.6 375.2q0.2 0.1 0.2 0.4 0 0.2-0.2 0.6-0.2 0.3-0.5 0.6-0.4 0.3-1 0.5-0.6 0.1-1.3 0.1-1.7 0-2.6-0.9-1-1-1-2.6 0-0.8 0.3-1.5 0.2-0.6 0.6-1.1 0.5-0.5 1.1-0.8 0.7-0.2 1.5-0.2 1 0 1.7 0.4 0.8 0.5 1.1 1.1 0.4 0.7 0.4 1.5 0 0.6-0.4 0.8-0.3 0.2-1 0.2h-3.5q0 0.6 0.3 1.1 0.2 0.4 0.6 0.7 0.4 0.2 0.8 0.2 0.4 0 0.6-0.1 0.3-0.1 0.5-0.2 0.3-0.2 0.5-0.4 0.2-0.1 0.5-0.4 0.2-0.2 0.4-0.2 0.3 0 0.4 0.2zm-4.6-1.9h3.2q-0.1-0.9-0.5-1.3-0.4-0.5-1.1-0.5-0.6 0-1.1 0.5-0.4 0.4-0.5 1.3z"/><path fill-rule="evenodd" class="z" d="m215.5 373.9q0 0.8-0.2 1.5-0.2 0.6-0.6 1.1-0.4 0.4-1 0.7-0.5 0.2-1.2 0.2-0.7 0-1.2-0.3-0.2-0.1-0.4-0.3-0.3-0.2-0.6-0.5v2.6q0 1.2-0.8 1.2-0.5 0-0.7-0.3-0.1-0.3-0.2-0.9v-7.6q0-0.5 0.3-0.8 0.2-0.2 0.6-0.2 0.3 0 0.6 0.3 0.2 0.2 0.2 0.7v0.2q0.5-0.6 1-0.9 0.6-0.3 1.2-0.3 0.9 0 1.5 0.4 0.7 0.5 1.1 1.3 0.4 0.7 0.4 1.7 0 0.1 0 0.2zm-1.9 1.1q0.2-0.5 0.2-1.2 0-0.6-0.3-1.1-0.2-0.5-0.5-0.8-0.4-0.3-0.9-0.3-0.7 0-1.2 0.6-0.5 0.6-0.5 1.7 0 1 0.5 1.6 0.4 0.5 1 0.6 0.1 0 0.2 0 0.5 0 0.8-0.3 0.4-0.2 0.6-0.7 0.1-0.1 0.1-0.1z"/><path class="A" d="m217.9 370.6q-0.2-0.3-0.6-0.3-0.4 0-0.7 0.3-0.2 0.2-0.2 0.8v5q0 0.5 0.2 0.8 0.3 0.2 0.7 0.2 0.4 0.1 0.6-0.2 0.3-0.3 0.3-0.8v-5.1q0-0.5-0.3-0.7zm0-2.6q-0.3-0.2-0.6-0.2-0.4 0-0.6 0.2-0.3 0.2-0.3 0.6 0 0.4 0.3 0.7 0.2 0.2 0.6 0.2 0.3 0 0.6-0.2 0.3-0.3 0.3-0.7 0-0.4-0.3-0.6z"/><path class="B" d="m223.8 376.6l-1.5-2.5-1 0.9v1.4q0 0.5-0.2 0.8-0.3 0.3-0.7 0.3-0.4 0-0.6-0.3-0.2-0.3-0.2-0.8v-7.5q0-0.6 0.2-0.9 0.2-0.3 0.6-0.3 0.4 0 0.7 0.3 0.2 0.2 0.2 0.8v4.2l2-2q0.4-0.4 0.6-0.6 0.2-0.1 0.4-0.1 0.4 0 0.6 0.2 0.2 0.2 0.2 0.5 0 0.4-0.7 1.1l-0.9 0.8 1.8 2.9q0.2 0.3 0.2 0.4 0.1 0.2 0.1 0.3 0 0.5-0.2 0.7-0.2 0.3-0.6 0.3-0.3 0-0.5-0.2-0.2-0.2-0.5-0.7z"/><path class="C" d="m227.6 377.5q-0.3 0-0.6-0.3-0.3-0.3-0.3-0.7 0-0.4 0.2-0.7 0.3-0.3 0.7-0.3 0.4 0 0.7 0.3 0.3 0.3 0.3 0.7 0 0.4-0.3 0.7-0.3 0.3-0.7 0.3z"/><path class="D" d="m236.4 375.3q0 0.3-0.2 0.7-0.2 0.4-0.6 0.7-0.4 0.3-1 0.5-0.6 0.2-1.4 0.2-1.6 0-2.5-0.9-1-1-1-2.6 0-1 0.5-1.9 0.4-0.8 1.2-1.3 0.8-0.4 1.9-0.4 0.6 0 1.2 0.2 0.6 0.2 1 0.5 0.4 0.3 0.6 0.7 0.2 0.3 0.2 0.6 0 0.4-0.2 0.6-0.3 0.2-0.6 0.2-0.2 0-0.4-0.1-0.1-0.1-0.3-0.4-0.3-0.5-0.7-0.7-0.3-0.3-0.9-0.3-0.7 0-1.2 0.7-0.5 0.6-0.5 1.6 0 0.5 0.1 0.9 0.1 0.4 0.4 0.7 0.2 0.3 0.5 0.5 0.4 0.1 0.8 0.1 0.5 0 0.9-0.2 0.4-0.3 0.6-0.8 0.2-0.3 0.4-0.4 0.2-0.2 0.4-0.2 0.4 0 0.6 0.3 0.2 0.2 0.2 0.5z"/><path fill-rule="evenodd" class="E" d="m244 373.9q0 0.8-0.3 1.4-0.2 0.7-0.7 1.2-0.4 0.4-1.1 0.7-0.6 0.3-1.4 0.3-0.8 0-1.5-0.3-0.6-0.3-1.1-0.7-0.4-0.5-0.7-1.2-0.2-0.6-0.2-1.4 0-0.8 0.2-1.5 0.3-0.6 0.7-1.1 0.5-0.5 1.1-0.7 0.7-0.3 1.5-0.3 0.8 0 1.4 0.3 0.7 0.2 1.1 0.7 0.5 0.5 0.7 1.1 0.3 0.7 0.3 1.5zm-1.8 0q0-1.1-0.5-1.7-0.4-0.6-1.2-0.6-0.6 0-0.9 0.3-0.4 0.2-0.7 0.8-0.2 0.5-0.2 1.2 0 0.7 0.2 1.2 0.3 0.5 0.6 0.8 0.4 0.2 1 0.2 0.8 0 1.2-0.6 0.5-0.6 0.5-1.6z"/><path class="F" d="m250.7 374v2.3q0 0.6-0.3 0.9-0.2 0.3-0.6 0.3-0.4 0-0.7-0.3-0.2-0.3-0.2-0.9v-2.8q0-0.6-0.1-1 0-0.4-0.2-0.6-0.2-0.2-0.7-0.2-0.8 0-1.1 0.6-0.3 0.6-0.3 1.7v2.3q0 0.6-0.2 0.9-0.3 0.3-0.7 0.3-0.4 0-0.6-0.3-0.3-0.3-0.3-0.9v-5q0-0.5 0.3-0.7 0.2-0.3 0.6-0.3 0.3 0 0.6 0.2 0.2 0.3 0.2 0.7v0.2q0.5-0.6 1-0.8 0.5-0.3 1.1-0.3 0.7 0 1.2 0.3 0.5 0.2 0.8 0.8 0.4-0.6 0.9-0.8 0.5-0.3 1.1-0.3 0.8 0 1.3 0.3 0.5 0.3 0.8 0.8 0.2 0.5 0.2 1.5v3.4q0 0.6-0.3 0.9-0.2 0.3-0.6 0.3-0.4 0-0.7-0.3-0.2-0.3-0.2-0.9v-2.9q0-0.6-0.1-0.9 0-0.4-0.2-0.6-0.3-0.2-0.7-0.2-0.3 0-0.6 0.2-0.4 0.2-0.5 0.5-0.2 0.5-0.2 1.6z"/><path class="G" d="m168.9 373.5q0-0.1 0-0.1 0 0 0 0.1z"/><path class="H" d="m169 374q0 0 0 0-0.1-0.2-0.1-0.5 0 0.3 0.1 0.5z"/><path class="I" d="m169.5 375.6q0 0 0 0 0 0 0 0z"/><path class="J" d="m169.5 375.5q0 0-0.1-0.1 0.1 0.1 0.1 0.1z"/><path class="K" d="m169.1 374.6q0.2 0.5 0.3 0.8-0.1-0.4-0.3-0.8 0 0 0 0z"/><path class="L" d="m175.7 366.7c0.3 0 0.6 0 0.9 0.1v-0.5c0 0-0.8-0.3-1.8-0.2l-0.1-0.3c0.3 0 0.6-0.3 0.6-0.7 0-0.4-0.3-0.7-0.7-0.7-0.4 0-0.7 0.3-0.7 0.7 0 0.4 0.2 0.7 0.5 0.7l0.1 0.4c-1.1 0.1-2 0.5-2 0.5l0.2 0.5q1-0.3 1.8-0.4 0.7-0.1 1.2-0.1z"/><path class="M" d="m169.5 369.3q0.1 0 0.1-0.1l-0.2-0.1-0.3-0.3c-0.1 0.1-0.6 0.5-1 1.4q0 0 0-0.1-0.2-0.2-0.6-0.2 0 0 0 0-0.2 0-0.3-0.1 0.1-0.1 0.1-0.2c0-0.3-0.2-0.5-0.4-0.5-0.3 0-0.5 0.2-0.5 0.5 0 0.2 0.2 0.4 0.5 0.4q0 0 0.1 0c0.1 0.1 0.3 0.2 0.5 0.2q0.2 0 0.3 0.1c0.1 0.1 0.1 0.2 0.2 0.3q0 0 0 0c-0.3 0.8-0.3 1.8-0.3 1.8l0.8 0.1c0-0.4 0-1 0.2-1.5 0.4-1 0.8-1.6 0.8-1.7z"/><path class="N" d="m181.9 367.3c-0.2 0-0.4 0.2-0.4 0.5q0 0 0 0.1c-0.2 0.1-0.3 0.3-0.3 0.5q0 0.2-0.1 0.3-0.1 0.1-0.2 0.1c-0.5-0.7-1.2-1.2-1.2-1.2l-0.5 0.6q0.6 0.5 1.2 1.3c0.3 0.4 0.5 0.9 0.8 1.4l0.7-0.3c0 0-0.3-0.8-0.8-1.5q0.1-0.1 0.2-0.2 0.2-0.1 0.2-0.5 0-0.2 0.1-0.3 0.1 0.1 0.3 0.1c0.3 0 0.5-0.2 0.5-0.4 0-0.3-0.2-0.5-0.5-0.5z"/><path class="O" d="m180.1 373.6c-0.9 0.4-2.5 1-4.6 1.3q-1.2 0.2-2.3 0.2c-1 0-1.8-0.1-2.4-0.2-0.8-0.1-1.3-0.2-1.7-0.3q0.2 0.4 0.3 0.8 0 0 0 0 0.1 0.1 0.1 0.1 0 0.1 0 0.1 0 0 0 0 0.4 0.6 0.8 1.1c1 1.1 1.9 1.2 2 1.2 0 0 0.9 0.3 2.2 0.3q2 0 3.9-0.8c0.9-0.4 1.7-1.1 2.2-1.8q0.5-0.7 0.7-1.5c0.1-0.3 0.1-0.8 0.1-1.3q-0.4 0.3-1.3 0.8z"/><path fill-rule="evenodd" class="P" d="m181.3 372.2c-0.2 0.1-0.7 0.5-1.5 0.8-0.9 0.5-2.4 1.1-4.4 1.4-3.1 0.4-6-0.3-6.4-0.4q-0.1-0.2-0.1-0.5 0 0 0 0 0-0.1 0-0.1-0.1-0.3-0.1-0.6c0-0.1 0-1 0.3-1.7 0.3-0.9 0.7-1.5 0.7-1.5 0.3-0.3 0.5-0.5 0.6-0.6 0.6-0.6 1.5-1.1 2.4-1.4q0.9-0.3 1.7-0.4c0.5-0.1 0.9-0.1 1.2-0.1 0.3 0 0.5 0 0.8 0.1 0.8 0.1 2.2 0.6 3.6 2.5 0.5 0.7 1 1.8 1.2 2.5zm-6.8-1.2c0-1.1-0.9-1.9-1.9-1.9-1.1 0-1.9 0.8-1.9 1.9 0 1 0.8 1.9 1.9 1.9 1 0 1.9-0.9 1.9-1.9zm4.8-0.7c0-0.7-0.5-1.2-1.2-1.2-0.6 0-1.1 0.5-1.1 1.2 0 0.6 0.5 1.2 1.1 1.2 0.7 0 1.2-0.6 1.2-1.2z"/><path fill-rule="evenodd" class="Q" d="m745.1 368.7v7.7q0 0.6-0.2 0.8-0.3 0.3-0.6 0.3-0.4 0-0.6-0.3-0.3-0.3-0.3-0.8v-0.1q-0.3 0.4-0.7 0.6-0.3 0.3-0.7 0.4-0.4 0.2-0.9 0.2-0.6 0-1.2-0.3-0.5-0.3-0.9-0.8-0.4-0.5-0.6-1.1-0.2-0.7-0.2-1.5 0-1.6 0.8-2.6 0.8-0.9 2.1-0.9 0.8 0 1.3 0.3 0.5 0.2 1 0.8v-2.6q0-0.6 0.2-0.8 0.3-0.3 0.7-0.3 0.4 0 0.6 0.2 0.2 0.3 0.2 0.8zm-1.8 5.2q0-0.7-0.2-1.2-0.2-0.5-0.6-0.8-0.4-0.3-0.9-0.3-0.5 0-0.8 0.3-0.4 0.3-0.6 0.8-0.2 0.5-0.2 1.2 0 0.7 0.2 1.2 0.2 0.5 0.6 0.7 0.4 0.3 0.8 0.3 0.5 0 0.9-0.2 0.4-0.3 0.6-0.8 0.2-0.5 0.2-1.2z"/><path fill-rule="evenodd" class="R" d="m752.4 375.2q0.1 0.1 0.1 0.4 0 0.2-0.2 0.6-0.2 0.3-0.5 0.6-0.4 0.3-1 0.5-0.5 0.2-1.3 0.2-1.7 0-2.6-1-1-1-1-2.6 0-0.8 0.3-1.5 0.2-0.6 0.6-1.1 0.5-0.5 1.1-0.8 0.7-0.2 1.5-0.2 1 0 1.7 0.4 0.8 0.5 1.2 1.2 0.3 0.6 0.3 1.4 0 0.6-0.4 0.8-0.3 0.2-1 0.2h-3.5q0 0.6 0.3 1.1 0.2 0.4 0.6 0.7 0.4 0.2 0.9 0.2 0.3 0 0.5-0.1 0.3-0.1 0.5-0.2 0.3-0.2 0.5-0.4 0.2-0.1 0.5-0.4 0.2-0.2 0.4-0.2 0.3 0 0.5 0.2zm-4.7-1.9h3.2q0-0.9-0.5-1.3-0.4-0.5-1.1-0.5-0.6 0-1.1 0.5-0.4 0.4-0.5 1.3z"/><path class="S" d="m758.9 374.3q-0.2-0.4-0.8-0.7-0.5-0.2-1.3-0.4-0.7-0.2-1.1-0.3-0.4-0.1-0.6-0.3-0.2-0.2-0.2-0.5 0-0.3 0.3-0.5 0.3-0.2 0.8-0.2 0.4 0 0.7 0.2 0.3 0.1 0.5 0.4 0.2 0.3 0.4 0.5 0.2 0.1 0.5 0.1 0.3 0 0.5-0.2 0.2-0.2 0.2-0.5 0-0.3-0.2-0.5-0.1-0.3-0.5-0.6-0.4-0.2-0.9-0.4-0.6-0.1-1.2-0.1-0.9 0-1.5 0.3-0.6 0.3-1 0.7-0.3 0.5-0.3 1 0 0.6 0.4 1 0.3 0.4 0.9 0.7 0.6 0.2 1.5 0.5 0.8 0.2 1.1 0.4 0.4 0.2 0.4 0.6 0 0.3-0.4 0.6-0.3 0.2-0.8 0.2-0.7 0-1.1-0.2-0.3-0.2-0.6-0.7-0.1-0.3-0.3-0.4-0.1-0.1-0.4-0.1-0.3 0-0.5 0.2-0.2 0.2-0.2 0.5 0 0.4 0.3 0.8 0.3 0.5 1 0.8 0.7 0.3 1.6 0.3 1 0 1.7-0.3 0.7-0.3 1-0.8 0.4-0.5 0.4-1.2 0-0.5-0.3-0.9z"/><path class="T" d="m761.6 370.6q-0.3-0.3-0.6-0.3-0.4 0-0.7 0.3-0.2 0.2-0.2 0.8v5q0 0.5 0.2 0.8 0.3 0.3 0.7 0.3 0.3 0 0.6-0.3 0.3-0.3 0.2-0.8v-5.1q0.1-0.5-0.2-0.7zm0-2.6q-0.3-0.2-0.6-0.2-0.4 0-0.6 0.2-0.3 0.3-0.3 0.6 0 0.4 0.2 0.7 0.3 0.2 0.7 0.2 0.3 0 0.6-0.2 0.2-0.3 0.2-0.7 0-0.4-0.2-0.6z"/><path fill-rule="evenodd" class="U" d="m769.5 371.6v5.1q0 0.9-0.1 1.5-0.2 0.6-0.6 1-0.4 0.5-1.1 0.7-0.7 0.2-1.7 0.2-0.9 0-1.6-0.3-0.7-0.2-1.1-0.7-0.4-0.4-0.4-0.8 0-0.3 0.2-0.5 0.3-0.2 0.6-0.2 0.4 0 0.6 0.3 0.2 0.2 0.3 0.4 0.2 0.2 0.4 0.3 0.2 0.1 0.4 0.2 0.3 0 0.6 0 0.7 0 1.1-0.2 0.3-0.1 0.5-0.5 0.1-0.3 0.2-0.7 0-0.4 0-1.3-0.4 0.6-0.9 0.9-0.6 0.3-1.3 0.3-0.9 0-1.5-0.5-0.7-0.4-1.1-1.2-0.3-0.8-0.3-1.9 0-0.8 0.2-1.4 0.2-0.7 0.6-1.1 0.4-0.4 0.9-0.7 0.6-0.2 1.2-0.2 0.7 0 1.3 0.3 0.5 0.3 1 0.9v-0.2q0-0.5 0.2-0.7 0.2-0.3 0.6-0.3 0.5 0 0.7 0.3 0.1 0.4 0.1 1zm-1.7 2.3q0-1.1-0.4-1.7-0.5-0.6-1.3-0.6-0.7 0-1.2 0.6-0.4 0.6-0.4 1.6 0 1.1 0.4 1.6 0.5 0.6 1.2 0.6 0.5 0 0.9-0.3 0.3-0.2 0.6-0.7 0.2-0.4 0.2-1.1z"/><path class="V" d="m776.9 372.2q-0.1-0.4-0.2-0.7-0.3-0.6-0.8-0.9-0.6-0.3-1.3-0.3-0.7 0-1.3 0.3-0.1 0.1-0.2 0.2-0.4 0.2-0.8 0.7v-0.2q0-0.3-0.1-0.6-0.1-0.2-0.3-0.3-0.2-0.1-0.4-0.1-0.4 0-0.6 0.3-0.2 0.2-0.2 0.7v5.1q0 0.5 0.2 0.8 0.3 0.3 0.7 0.3 0.4 0 0.6-0.3 0.3-0.3 0.2-0.8v-2.2q0-1.1 0.2-1.5 0.2-0.5 0.5-0.8 0.4-0.2 0.9-0.2 0.7 0 1 0.4 0.2 0.5 0.2 1.4v2.9q0 0.5 0.2 0.8 0.3 0.3 0.7 0.3 0.4 0 0.6-0.3 0.3-0.3 0.3-0.8v-3.3q0-0.6-0.1-0.9z"/><path fill-rule="evenodd" class="W" d="m784.2 375.2q0.2 0.1 0.2 0.4 0 0.2-0.2 0.6-0.2 0.3-0.6 0.6-0.3 0.2-0.9 0.4 0 0.1 0 0.1-0.6 0.2-1.3 0.2-1.7 0-2.7-1-0.9-1-0.9-2.6 0-0.8 0.2-1.5 0.3-0.6 0.7-1.1 0.4-0.5 1.1-0.8 0.6-0.2 1.4-0.2 1.1 0 1.8 0.4 0.7 0.5 1.1 1.2 0.4 0.6 0.4 1.4 0 0.6-0.4 0.8-0.4 0.2-1.1 0.2h-3.4q0 0.5 0.2 0.9 0 0.1 0 0.2 0.3 0.4 0.7 0.7 0.4 0.2 0.8 0.2 0 0 0 0 0.3 0 0.6-0.1 0.3-0.1 0.5-0.2 0.2-0.2 0.4-0.4 0.3-0.1 0.6-0.4 0.1-0.2 0.4-0.2 0.2 0 0.4 0.2zm-4.6-1.9h3.2q-0.1-0.9-0.5-1.3-0.4-0.5-1.1-0.5-0.7 0-1.1 0.5-0.4 0.4-0.5 1.3z"/><path fill-rule="evenodd" class="X" d="m791.9 368.7v7.7q0 0.6-0.3 0.8-0.2 0.3-0.6 0.3-0.3 0-0.6-0.3-0.2-0.3-0.2-0.8v-0.1q-0.4 0.4-0.7 0.6-0.3 0.3-0.8 0.4-0.4 0.2-0.8 0.2-0.7 0-1.2-0.3-0.5-0.3-0.9-0.8-0.4-0.5-0.6-1.1-0.2-0.7-0.2-1.5 0-1.6 0.8-2.6 0.8-0.9 2.1-0.9 0.8 0 1.3 0.3 0.5 0.2 1 0.8v-2.6q0-0.6 0.2-0.8 0.2-0.3 0.6-0.3 0.4 0 0.6 0.2 0.3 0.3 0.3 0.8zm-1.8 5.2q0-0.7-0.2-1.2-0.3-0.5-0.7-0.8-0.3-0.3-0.8-0.3-0.5 0-0.9 0.3-0.3 0.3-0.6 0.8-0.2 0.5-0.2 1.2 0 0.7 0.3 1.2 0.2 0.5 0.6 0.7 0.4 0.3 0.8 0.3 0.5 0 0.9-0.2 0.3-0.3 0.6-0.8 0.2-0.5 0.2-1.2z"/><path fill-rule="evenodd" class="Y" d="m802.6 373.8q0 0.8-0.2 1.5-0.2 0.6-0.6 1.1-0.4 0.5-0.9 0.8-0.6 0.3-1.3 0.3-0.4 0-0.7-0.1-0.4-0.1-0.6-0.3-0.3-0.2-0.5-0.3-0.1-0.2-0.4-0.5v0.1q0 0.5-0.3 0.8-0.2 0.3-0.6 0.3-0.3 0-0.6-0.3-0.2-0.3-0.2-0.8v-7.6q0-0.6 0.2-0.8 0.3-0.3 0.6-0.3 0.4 0 0.7 0.3 0.2 0.2 0.2 0.7v2.7q0.5-0.5 1-0.8 0.5-0.3 1.3-0.3 0.8 0 1.5 0.4 0.7 0.5 1 1.2 0.4 0.8 0.4 1.9zm-1.8 0.1q0-0.7-0.2-1.2-0.2-0.5-0.6-0.8-0.3-0.3-0.8-0.3-0.5 0-0.9 0.3-0.4 0.3-0.6 0.8-0.2 0.5-0.2 1.2 0 1.1 0.4 1.6 0.5 0.6 1.3 0.6 0.7 0 1.1-0.6 0.5-0.6 0.5-1.6z"/><path class="Z" d="m809 370.7q-0.1-0.2-0.3-0.3-0.2-0.1-0.4-0.1-0.2 0-0.4 0.1-0.1 0.1-0.3 0.4-0.1 0.3-0.3 0.7l-1.4 4.1-1.5-4.4q-0.1-0.4-0.3-0.7-0.2-0.2-0.6-0.2-0.2 0-0.4 0.1-0.2 0.1-0.3 0.3-0.1 0.2-0.1 0.4 0 0.3 0.2 0.7l2.1 5.5-0.1 0.4q-0.2 0.4-0.4 0.6-0.1 0.2-0.3 0.3-0.1 0.1-0.4 0.1-0.2 0-0.3 0-0.2 0-0.3-0.1-0.4 0-0.6 0.2-0.1 0.2-0.1 0.5 0 0.4 0.3 0.6 0.4 0.2 1.2 0.2 0.8 0 1.3-0.3 0.4-0.2 0.7-0.7 0.3-0.4 0.6-1.2l2.3-6q0.1-0.3 0.1-0.5 0.1-0.2 0.1-0.3 0-0.2-0.1-0.4z"/><path class="a0" d="m830.3 370.5h0.4v-0.6q0-0.8 0.2-1.3 0.3-0.5 0.8-0.7 0.5-0.2 1.3-0.2 1.6 0 1.6 0.7 0 0.3-0.2 0.5-0.2 0.1-0.4 0.1-0.1 0-0.3 0-0.3 0-0.5 0-0.4 0-0.6 0.2-0.1 0.3-0.1 0.8v0.5h0.4q1 0 1 0.6 0 0.4-0.2 0.5-0.3 0.1-0.8 0.1h-0.4v4.7q0 0.5-0.3 0.8-0.2 0.3-0.6 0.3-0.4 0-0.6-0.3-0.3-0.3-0.3-0.8v-4.7h-0.4q-0.4 0-0.7-0.2-0.2-0.1-0.2-0.4 0-0.6 0.9-0.6z"/><path class="a1" d="m836.1 374.9v1.5q0 0.5-0.3 0.8-0.2 0.3-0.6 0.3-0.4 0-0.6-0.3-0.3-0.3-0.3-0.8v-4.9q0-1.2 0.9-1.2 0.4 0 0.6 0.3 0.2 0.3 0.2 0.8 0.3-0.5 0.7-0.8 0.3-0.3 0.8-0.3 0.6 0 1.1 0.3 0.5 0.3 0.5 0.7 0 0.3-0.2 0.5-0.2 0.3-0.5 0.3-0.1 0-0.4-0.2-0.4-0.1-0.7-0.1-0.4 0-0.6 0.2-0.3 0.2-0.4 0.6-0.1 0.4-0.2 1 0 0.5 0 1.3z"/><path fill-rule="evenodd" class="a2" d="m845.3 375.2q0.2 0.1 0.2 0.4 0 0.2-0.2 0.6-0.2 0.3-0.6 0.6-0.3 0.3-0.9 0.5-0.6 0.1-1.3 0.1-1.7 0-2.6-0.9-1-1-1-2.6 0-0.8 0.2-1.5 0.3-0.6 0.7-1.1 0.5-0.5 1.1-0.8 0.7-0.2 1.5-0.2 1 0 1.7 0.4 0.8 0.5 1.1 1.1 0.4 0.7 0.4 1.5 0 0.6-0.4 0.8-0.4 0.2-1.1 0.2h-3.4q0 0.6 0.2 1.1 0.3 0.4 0.7 0.7 0.4 0.2 0.8 0.2 0.4 0 0.6-0.1 0.3-0.1 0.5-0.2 0.3-0.2 0.5-0.4 0.2-0.1 0.5-0.4 0.1-0.2 0.4-0.2 0.3 0 0.4 0.2zm-4.6-1.9h3.2q-0.1-0.9-0.5-1.3-0.4-0.5-1.1-0.5-0.6 0-1.1 0.5-0.4 0.4-0.5 1.3z"/><path fill-rule="evenodd" class="a3" d="m852.6 375.2q0.2 0.1 0.2 0.4 0 0.2-0.2 0.6-0.2 0.3-0.5 0.6-0.4 0.3-1 0.5-0.6 0.1-1.3 0.1-1.7 0-2.6-0.9-1-1-1-2.6 0-0.8 0.3-1.5 0.2-0.6 0.6-1.1 0.5-0.5 1.1-0.8 0.7-0.2 1.5-0.2 1 0 1.7 0.4 0.8 0.5 1.1 1.1 0.4 0.7 0.4 1.5 0 0.6-0.4 0.8-0.3 0.2-1 0.2h-3.5q0 0.6 0.3 1.1 0.2 0.4 0.6 0.7 0.4 0.2 0.8 0.2 0.4 0 0.6-0.1 0.3-0.1 0.5-0.2 0.3-0.2 0.5-0.4 0.2-0.1 0.5-0.4 0.2-0.2 0.4-0.2 0.3 0 0.4 0.2zm-4.6-1.9h3.2q-0.1-0.9-0.5-1.3-0.4-0.5-1.1-0.5-0.6 0-1.1 0.5-0.4 0.4-0.5 1.3z"/><path fill-rule="evenodd" class="a4" d="m860.5 373.9q0 0.8-0.2 1.5-0.2 0.6-0.6 1.1-0.4 0.4-1 0.7-0.5 0.2-1.2 0.2-0.7 0-1.2-0.3-0.2-0.1-0.4-0.3-0.3-0.2-0.6-0.5v2.6q0 1.2-0.8 1.2-0.5 0-0.7-0.3-0.1-0.3-0.2-0.9v-7.6q0-0.5 0.3-0.8 0.2-0.2 0.6-0.2 0.3 0 0.6 0.3 0.2 0.2 0.2 0.7v0.2q0.5-0.6 1-0.9 0.6-0.3 1.2-0.3 0.9 0 1.5 0.4 0.7 0.5 1.1 1.3 0.4 0.7 0.4 1.7 0 0.1 0 0.2zm-1.9 1.1q0.2-0.5 0.2-1.2 0-0.6-0.3-1.1-0.2-0.5-0.5-0.8-0.4-0.3-0.9-0.3-0.7 0-1.2 0.6-0.5 0.6-0.5 1.7 0 1 0.5 1.6 0.4 0.5 1 0.6 0.1 0 0.2 0 0.5 0 0.8-0.3 0.4-0.2 0.6-0.7 0.1-0.1 0.1-0.1z"/><path class="a5" d="m862.9 370.6q-0.2-0.3-0.6-0.3-0.4 0-0.7 0.3-0.2 0.2-0.2 0.8v5q0 0.5 0.2 0.8 0.3 0.2 0.7 0.2 0.4 0.1 0.6-0.2 0.3-0.3 0.3-0.8v-5.1q0-0.5-0.3-0.7zm0-2.6q-0.3-0.2-0.6-0.2-0.4 0-0.6 0.2-0.3 0.2-0.3 0.6 0 0.4 0.3 0.7 0.2 0.2 0.6 0.2 0.3 0 0.6-0.2 0.3-0.3 0.3-0.7 0-0.4-0.3-0.6z"/><path class="a6" d="m868.8 376.6l-1.5-2.5-1 0.9v1.4q0 0.5-0.2 0.8-0.3 0.3-0.7 0.3-0.4 0-0.6-0.3-0.2-0.3-0.2-0.8v-7.5q0-0.6 0.2-0.9 0.2-0.3 0.6-0.3 0.4 0 0.7 0.3 0.2 0.2 0.2 0.8v4.2l2-2q0.4-0.4 0.6-0.6 0.2-0.1 0.4-0.1 0.4 0 0.6 0.2 0.2 0.2 0.2 0.5 0 0.4-0.7 1.1l-0.9 0.8 1.8 2.9q0.2 0.3 0.2 0.4 0.1 0.2 0.1 0.3 0 0.5-0.2 0.7-0.2 0.3-0.6 0.3-0.3 0-0.5-0.2-0.2-0.2-0.5-0.7z"/><path class="a7" d="m872.6 377.5q-0.3 0-0.6-0.3-0.3-0.3-0.3-0.7 0-0.4 0.2-0.7 0.3-0.3 0.7-0.3 0.4 0 0.7 0.3 0.3 0.3 0.3 0.7 0 0.4-0.3 0.7-0.3 0.3-0.7 0.3z"/><path class="a8" d="m881.4 375.3q0 0.3-0.2 0.7-0.2 0.4-0.6 0.7-0.4 0.3-1 0.5-0.6 0.2-1.4 0.2-1.6 0-2.5-0.9-1-1-1-2.6 0-1 0.5-1.9 0.4-0.8 1.2-1.3 0.8-0.4 1.9-0.4 0.6 0 1.2 0.2 0.6 0.2 1 0.5 0.4 0.3 0.6 0.7 0.2 0.3 0.2 0.6 0 0.4-0.2 0.6-0.3 0.2-0.6 0.2-0.2 0-0.4-0.1-0.1-0.1-0.3-0.4-0.3-0.5-0.7-0.7-0.3-0.3-0.9-0.3-0.7 0-1.2 0.7-0.5 0.6-0.5 1.6 0 0.5 0.1 0.9 0.1 0.4 0.4 0.7 0.2 0.3 0.5 0.5 0.4 0.1 0.8 0.1 0.5 0 0.9-0.2 0.4-0.3 0.6-0.8 0.2-0.3 0.4-0.4 0.2-0.2 0.4-0.2 0.4 0 0.6 0.3 0.2 0.2 0.2 0.5z"/><path fill-rule="evenodd" class="a9" d="m889 373.9q0 0.8-0.3 1.4-0.2 0.7-0.7 1.2-0.4 0.4-1.1 0.7-0.6 0.3-1.4 0.3-0.8 0-1.5-0.3-0.6-0.3-1.1-0.7-0.4-0.5-0.7-1.2-0.2-0.6-0.2-1.4 0-0.8 0.2-1.5 0.3-0.6 0.7-1.1 0.5-0.5 1.1-0.7 0.7-0.3 1.5-0.3 0.8 0 1.4 0.3 0.7 0.2 1.1 0.7 0.5 0.5 0.7 1.1 0.3 0.7 0.3 1.5zm-1.8 0q0-1.1-0.5-1.7-0.4-0.6-1.2-0.6-0.6 0-0.9 0.3-0.4 0.2-0.7 0.8-0.2 0.5-0.2 1.2 0 0.7 0.2 1.2 0.3 0.5 0.6 0.8 0.4 0.2 1 0.2 0.8 0 1.2-0.6 0.5-0.6 0.5-1.6z"/><path class="aa" d="m895.7 374v2.3q0 0.6-0.3 0.9-0.2 0.3-0.6 0.3-0.4 0-0.7-0.3-0.2-0.3-0.2-0.9v-2.8q0-0.6-0.1-1 0-0.4-0.2-0.6-0.2-0.2-0.7-0.2-0.8 0-1.1 0.6-0.3 0.6-0.3 1.7v2.3q0 0.6-0.2 0.9-0.3 0.3-0.7 0.3-0.4 0-0.6-0.3-0.3-0.3-0.3-0.9v-5q0-0.5 0.3-0.7 0.2-0.3 0.6-0.3 0.3 0 0.6 0.2 0.2 0.3 0.2 0.7v0.2q0.5-0.6 1-0.8 0.5-0.3 1.1-0.3 0.7 0 1.2 0.3 0.5 0.2 0.8 0.8 0.4-0.6 0.9-0.8 0.5-0.3 1.1-0.3 0.8 0 1.3 0.3 0.5 0.3 0.8 0.8 0.2 0.5 0.2 1.5v3.4q0 0.6-0.3 0.9-0.2 0.3-0.6 0.3-0.4 0-0.7-0.3-0.2-0.3-0.2-0.9v-2.9q0-0.6-0.1-0.9 0-0.4-0.2-0.6-0.3-0.2-0.7-0.2-0.3 0-0.6 0.2-0.4 0.2-0.5 0.5-0.2 0.5-0.2 1.6z"/><path class="ab" d="m813.9 373.5q0-0.1 0-0.1 0 0 0 0.1z"/><path class="ac" d="m814 374q0 0 0 0-0.1-0.2-0.1-0.5 0 0.3 0.1 0.5z"/><path class="ad" d="m814.5 375.6q0 0 0 0 0 0 0 0z"/><path class="ae" d="m814.5 375.5q0 0-0.1-0.1 0.1 0.1 0.1 0.1z"/><path class="af" d="m814.1 374.6q0.2 0.5 0.3 0.8-0.1-0.4-0.3-0.8 0 0 0 0z"/><path class="ag" d="m820.7 366.7c0.3 0 0.6 0 0.9 0.1v-0.5c0 0-0.8-0.3-1.8-0.2l-0.1-0.3c0.3 0 0.6-0.3 0.6-0.7 0-0.4-0.3-0.7-0.7-0.7-0.4 0-0.7 0.3-0.7 0.7 0 0.4 0.2 0.7 0.5 0.7l0.1 0.4c-1.1 0.1-2 0.5-2 0.5l0.2 0.5q1-0.3 1.8-0.4 0.7-0.1 1.2-0.1z"/><path class="ah" d="m814.5 369.3q0.1 0 0.1-0.1l-0.2-0.1-0.3-0.3c-0.1 0.1-0.6 0.5-1 1.4q0 0 0-0.1-0.2-0.2-0.6-0.2 0 0 0 0-0.2 0-0.3-0.1 0.1-0.1 0.1-0.2c0-0.3-0.2-0.5-0.4-0.5-0.3 0-0.5 0.2-0.5 0.5 0 0.2 0.2 0.4 0.5 0.4q0 0 0.1 0c0.1 0.1 0.3 0.2 0.5 0.2q0.2 0 0.3 0.1c0.1 0.1 0.1 0.2 0.2 0.3q0 0 0 0c-0.3 0.8-0.3 1.8-0.3 1.8l0.8 0.1c0-0.4 0-1 0.2-1.5 0.4-1 0.8-1.6 0.8-1.7z"/><path class="ai" d="m826.9 367.3c-0.2 0-0.4 0.2-0.4 0.5q0 0 0 0.1c-0.2 0.1-0.3 0.3-0.3 0.5q0 0.2-0.1 0.3-0.1 0.1-0.2 0.1c-0.5-0.7-1.2-1.2-1.2-1.2l-0.5 0.6q0.6 0.5 1.2 1.3c0.3 0.4 0.5 0.9 0.8 1.4l0.7-0.3c0 0-0.3-0.8-0.8-1.5q0.1-0.1 0.2-0.2 0.2-0.1 0.2-0.5 0-0.2 0.1-0.3 0.1 0.1 0.3 0.1c0.3 0 0.5-0.2 0.5-0.4 0-0.3-0.2-0.5-0.5-0.5z"/><path class="aj" d="m825.1 373.6c-0.9 0.4-2.5 1-4.6 1.3q-1.2 0.2-2.3 0.2c-1 0-1.8-0.1-2.4-0.2-0.8-0.1-1.3-0.2-1.7-0.3q0.2 0.4 0.3 0.8 0 0 0 0 0.1 0.1 0.1 0.1 0 0.1 0 0.1 0 0 0 0 0.4 0.6 0.8 1.1c1 1.1 1.9 1.2 2 1.2 0 0 0.9 0.3 2.2 0.3q2 0 3.9-0.8c0.9-0.4 1.7-1.1 2.2-1.8q0.5-0.7 0.7-1.5c0.1-0.3 0.1-0.8 0.1-1.3q-0.4 0.3-1.3 0.8z"/><path fill-rule="evenodd" class="ak" d="m826.3 372.2c-0.2 0.1-0.7 0.5-1.5 0.8-0.9 0.5-2.4 1.1-4.4 1.4-3.1 0.4-6-0.3-6.4-0.4q-0.1-0.2-0.1-0.5 0 0 0 0 0-0.1 0-0.1-0.1-0.3-0.1-0.6c0-0.1 0-1 0.3-1.7 0.3-0.9 0.7-1.5 0.7-1.5 0.3-0.3 0.5-0.5 0.6-0.6 0.6-0.6 1.5-1.1 2.4-1.4q0.9-0.3 1.7-0.4c0.5-0.1 0.9-0.1 1.2-0.1 0.3 0 0.5 0 0.8 0.1 0.8 0.1 2.2 0.6 3.6 2.5 0.5 0.7 1 1.8 1.2 2.5zm-6.8-1.2c0-1.1-0.9-1.9-1.9-1.9-1.1 0-1.9 0.8-1.9 1.9 0 1 0.8 1.9 1.9 1.9 1 0 1.9-0.9 1.9-1.9zm4.8-0.7c0-0.7-0.5-1.2-1.2-1.2-0.6 0-1.1 0.5-1.1 1.2 0 0.6 0.5 1.2 1.1 1.2 0.7 0 1.2-0.6 1.2-1.2z"/></g></svg>